<svg xmlns="http://www.w3.org/2000/svg" width="29" height="29.087" viewBox="0 0 29 29.087">
  <path id="Alerts___Notifications_icon_black" data-name="Alerts_&amp;_Notifications_icon_black" d="M37.957,40.466h4.356v1.452H37.957Zm7.26-6.534v10.89H35.053V33.933h2.9v-.726h4.356v.726Zm-1.452,1.452H42.313v.726H37.957v-.726H36.505V43.37h7.26Zm-12.624-.807.484-5.566V24.495H29.769v4.517l.484,5.566ZM30.7,39.014a1.291,1.291,0,1,0,0-2.581,1.291,1.291,0,1,0,0,2.581Zm0-20.279,7.2,13.02h1.659L30.7,15.735,16.217,41.918H33.6V40.466H18.679Zm7.26,20.279h4.356V37.562H37.957Z" transform="translate(-16.217 -15.735)"/>
</svg>
