<svg xmlns="http://www.w3.org/2000/svg" width="26.392" height="29.985" viewBox="0 0 26.392 29.985">
  <g id="Analysis_icon_black" transform="translate(-19.959 -208)">
    <path id="Union_3" data-name="Union 3" d="M0,5.183,1.946,3.047,0,.911.83,0,3.6,3.038l-.009.01.009.01L.83,6.094Z" transform="translate(38.8 231.891)"/>
    <path id="bar-chart-search" d="M42.263,41.53H40.8V40.064h1.466ZM45.2,53.993H42.263v-2.2H40.8v3.666h5.865v-2.2H45.2Zm0-5.132h1.466V43.73H45.2Zm5.865-15.4h2.932V49.594h1.466V32H49.594v8.064h1.466ZM32,48.128h5.865v7.331H32Zm1.466,5.865H36.4v-4.4H33.466ZM58.392,56.42a1.972,1.972,0,0,1-3.366,1.394L48.515,51.3a5.468,5.468,0,1,1,2.79-2.787l6.509,6.509a1.958,1.958,0,0,1,.577,1.394ZM50.347,46.309A4.052,4.052,0,1,0,46.3,50.347a4.05,4.05,0,0,0,4.052-4.038ZM56.925,56.42a.5.5,0,0,0-.148-.357L50.511,49.8a5.52,5.52,0,0,1-.716.714l6.267,6.267a.506.506,0,0,0,.863-.357Z" transform="translate(-12.041 176)"/>
  </g>
</svg>
