<svg xmlns="http://www.w3.org/2000/svg" width="24.452" height="30.565" viewBox="0 0 24.452 30.565">
  <path id="Appliances_icon" d="M52.631,20.585H50.339V19.056h2.292Zm-3.056-1.528H47.282v1.528h2.292Zm-3.056,0H44.226v1.528h2.292Zm-4.585,0H35.821v1.528h6.113Zm14.518-.013V43.521a3.047,3.047,0,0,1-3.044,3.044H35.044A3.047,3.047,0,0,1,32,43.521V19.044A3.047,3.047,0,0,1,35.044,16H53.408A3.047,3.047,0,0,1,56.452,19.044Zm-1.528,4.6h-21.4v19.88a1.517,1.517,0,0,0,1.516,1.516H53.408a1.517,1.517,0,0,0,1.516-1.516V23.641Zm0-4.6a1.517,1.517,0,0,0-1.516-1.516H35.044a1.518,1.518,0,0,0-1.516,1.516v3.069h21.4ZM51.963,34.339A7.737,7.737,0,1,1,44.226,26.6,7.745,7.745,0,0,1,51.963,34.339ZM38.327,33.151a3.531,3.531,0,0,0,1.028-.746.764.764,0,0,1,1.242,0c.541.755,1.093,1.17,1.552,1.17s1.011-.415,1.552-1.17a.764.764,0,0,1,1.242,0c.541.755,1.093,1.17,1.552,1.17s1.011-.415,1.552-1.17a.764.764,0,0,1,1.242,0,3.2,3.2,0,0,0,.821.674,6.017,6.017,0,0,0-11.783.071Zm11.892,1.715a6.986,6.986,0,0,1-1.487-.892A3.135,3.135,0,0,1,46.494,35.1a3.087,3.087,0,0,1-2.173-1.062A3.087,3.087,0,0,1,42.148,35.1a3.144,3.144,0,0,1-2.25-1.142,7.6,7.6,0,0,1-1.664.921,6.016,6.016,0,0,0,11.985-.016Z" transform="translate(-32 -16)"/>
</svg>
