<svg xmlns="http://www.w3.org/2000/svg" width="21" height="24" viewBox="0 0 21 24">
  <path id="block-img" d="M22.5,22.928H7.5v-3l4.5-7.5,6.164,7.5,4.336-3Zm0-9.75a2.25,2.25,0,1,1-2.25-2.25A2.25,2.25,0,0,1,22.5,13.178ZM24.51,7.3A21.252,21.252,0,0,0,22.467,4.96,21.257,21.257,0,0,0,20.13,2.917,3.738,3.738,0,0,0,18,1.928H6.374A1.877,1.877,0,0,0,4.5,3.8v20.25a1.877,1.877,0,0,0,1.875,1.875h17.25A1.877,1.877,0,0,0,25.5,24.053V9.428A3.738,3.738,0,0,0,24.51,7.3Zm-3.1-1.276a20.458,20.458,0,0,1,1.7,1.907H19.5V4.32a20.437,20.437,0,0,1,1.907,1.7ZM24,24.053a.38.38,0,0,1-.375.375H6.374A.38.38,0,0,1,6,24.053V3.8a.38.38,0,0,1,.375-.375H18v5.25a.75.75,0,0,0,.75.75H24Z" transform="translate(-4.499 -1.928)" fill="#ced0d7"/>
</svg>
