<svg xmlns="http://www.w3.org/2000/svg" width="47.009" height="29.33" viewBox="0 0 47.009 29.33">
  <g id="car_icon" transform="translate(0 0)">
    <path id="Path_7096" data-name="Path 7096" d="M332.294,289.634H317.818a5.266,5.266,0,0,1-2.142-.45l-2.5-1.1a.734.734,0,1,1,.591-1.343l2.5,1.1a3.828,3.828,0,0,0,1.555.325H332.3a3.879,3.879,0,0,0,1.555-.325l2.5-1.1a.734.734,0,1,1,.591,1.343l-2.5,1.1a5.355,5.355,0,0,1-2.148.45Z" transform="translate(-292.452 -271.439)"/>
    <path id="Path_7097" data-name="Path 7097" d="M315.212,235.316h-24.4a2.206,2.206,0,0,1-2.2-2.2v-4.759a3.055,3.055,0,0,1,.606-1.821l4.679-6.247a5.359,5.359,0,0,1,4.269-2.136h9.7a5.358,5.358,0,0,1,4.269,2.136l4.679,6.247a3.056,3.056,0,0,1,.606,1.821v4.759a2.208,2.208,0,0,1-2.2,2.2Zm-24.824-7.9a1.574,1.574,0,0,0-.312.94v4.759a.735.735,0,0,0,.735.735h24.4a.735.735,0,0,0,.735-.735v-4.759a1.577,1.577,0,0,0-.312-.94l-4.679-6.247a3.88,3.88,0,0,0-3.094-1.549h-9.7a3.88,3.88,0,0,0-3.094,1.549Z" transform="translate(-270.407 -208.823)"/>
    <path id="Path_7098" data-name="Path 7098" d="M400.125,341.471h-7.706a1.42,1.42,0,0,1-1.359-1.025l-.321-1.117a1.415,1.415,0,0,1,1.359-1.806h8.346a1.415,1.415,0,0,1,1.359,1.806l-.321,1.117A1.413,1.413,0,0,1,400.125,341.471ZM392.458,340h7.624l.291-1.01h-8.2Z" transform="translate(-363.665 -317.889)"/>
    <path id="Path_7099" data-name="Path 7099" d="M539.89,343.257a.748.748,0,0,1-.083,0l-1.772-.089a1.695,1.695,0,0,1,0-3.385l1.772-.089a1.7,1.7,0,0,1,1.778,1.692v.177a1.7,1.7,0,0,1-.527,1.227,1.687,1.687,0,0,1-1.169.469Zm-.012-1.469a.225.225,0,0,0,.236-.223v-.177a.225.225,0,0,0-.236-.223l-1.772.089a.223.223,0,0,0,0,.447Z" transform="translate(-496.823 -319.869)"/>
    <path id="Path_7100" data-name="Path 7100" d="M316.319,343.3a1.7,1.7,0,0,1-1.7-1.7v-.174a1.7,1.7,0,0,1,1.778-1.692l1.772.089a1.695,1.695,0,0,1,0,3.385l-1.772.089h-.083Zm0-2.093a.232.232,0,0,0-.153.061.218.218,0,0,0-.071.162v.177a.225.225,0,0,0,.236.223l1.772-.089a.223.223,0,0,0,0-.447l-1.772-.089h-.012Z" transform="translate(-294.174 -319.914)"/>
    <path id="Path_7101" data-name="Path 7101" d="M315.2,404.217a2.521,2.521,0,0,1-2.519-2.522v-1.053a.733.733,0,0,1,.735-.735h3.572a.733.733,0,0,1,.735.735V401.7a2.527,2.527,0,0,1-2.522,2.522Zm-1.053-2.837v.318a1.051,1.051,0,1,0,2.1,0v-.318Z" transform="translate(-292.4 -374.887)"/>
    <path id="Path_7102" data-name="Path 7102" d="M542.321,404.217A2.521,2.521,0,0,1,539.8,401.7v-1.053a.733.733,0,0,1,.735-.735h3.572a.733.733,0,0,1,.735.735V401.7a2.523,2.523,0,0,1-2.522,2.522Zm-1.053-2.837v.318a1.051,1.051,0,0,0,2.1,0v-.318Z" transform="translate(-499.908 -374.887)"/>
    <path id="Path_7103" data-name="Path 7103" d="M115.025,168.958h-13a.733.733,0,0,1-.735-.735V143.149a.733.733,0,0,1,.735-.735h13a.733.733,0,0,1,.735.735v25.075a.733.733,0,0,1-.735.734Zm-12.263-1.469h11.529V143.883H102.762Z" transform="translate(-99.264 -139.628)"/>
    <path id="Path_7104" data-name="Path 7104" d="M95.593,114.4H78.537a.733.733,0,0,1-.735-.735v-2.785a.733.733,0,0,1,.735-.735H95.593a.733.733,0,0,1,.735.735v2.785A.733.733,0,0,1,95.593,114.4Zm-16.322-1.469H94.858V111.62H79.271Z" transform="translate(-77.802 -110.15)"/>
    <path id="Path_7105" data-name="Path 7105" d="M115.025,248.684h-13a.735.735,0,0,1,0-1.469h13a.734.734,0,1,1,0,1.469Z" transform="translate(-99.264 -235.379)"/>
    <path id="Path_7106" data-name="Path 7106" d="M143.82,180.414h-6.987a.735.735,0,0,1,0-1.469h6.987a.735.735,0,1,1,0,1.469Z" transform="translate(-131.064 -173.004)"/>
    <path id="Path_7107" data-name="Path 7107" d="M143.82,212.144h-6.987a.735.735,0,0,1,0-1.469h6.987a.735.735,0,1,1,0,1.469Z" transform="translate(-131.064 -201.994)"/>
    <path id="Path_7108" data-name="Path 7108" d="M159.077,317.578a2.459,2.459,0,0,1-2.458-2.458c0-1.72,1.729-3.566,1.928-3.77a.733.733,0,0,1,1.059,0c.2.205,1.928,2.054,1.928,3.77a2.463,2.463,0,0,1-2.458,2.458Zm0-4.575a4.252,4.252,0,0,0-.989,2.121.989.989,0,0,0,1.977,0A4.25,4.25,0,0,0,159.074,313Z" transform="translate(-149.813 -293.77)"/>
    <path id="Path_7109" data-name="Path 7109" d="M256.549,207.192a.733.733,0,0,1-.735-.735v-7.091a1.686,1.686,0,0,0-1.683-1.683h-1.573a.735.735,0,0,1,0-1.469h1.57a3.156,3.156,0,0,1,3.152,3.152v7.091a.732.732,0,0,1-.732.735Z" transform="translate(-236.797 -188.782)"/>
  </g>
</svg>
