<svg xmlns="http://www.w3.org/2000/svg" width="19.673" height="16.722" viewBox="0 0 19.673 16.722">
  <path id="Change_photo" data-name="Change photo" d="M34.689,52.788h.984a3.934,3.934,0,0,1-6.886,2.6v1.333H27.8V53.771h2.951v.984H29.54a2.95,2.95,0,0,0,5.149-1.967Zm0-2.6a3.934,3.934,0,0,0-6.886,2.6h.984a2.95,2.95,0,0,1,5.149-1.967H32.722V51.8h2.951V48.853h-.984Zm-12.3-1.825a3.443,3.443,0,1,1,6.886,0c0,.058,0,.115,0,.172a4.892,4.892,0,0,1,.98-.435,4.429,4.429,0,1,0-3.431,4.577,4.906,4.906,0,0,1,.14-1.062,3.441,3.441,0,0,1-4.569-3.253Zm7.761-6.394L29.663,40H22.01l-.492,1.967H16V54.755H26.82v-.984H16.984V42.951h5.3l.492-1.967H28.9l.492,1.967h5.3v4.918h.984v-5.9Z" transform="translate(-16 -40)" fill="#007bc0"/>
</svg>
