<svg xmlns="http://www.w3.org/2000/svg" width="21.395" height="24.452" viewBox="0 0 21.395 24.452">
  <path id="Cities_icon" d="M40,32H50.7V56.452H40Zm9.169,1.528H41.528v21.4h7.641Zm3.056,22.924H61.4V38.113H52.226v1.528h7.641V54.924H52.226ZM46.113,38.877h1.528V35.821H46.113Zm-3.056,0h1.528V35.821H43.056Zm3.056,4.585h1.528V40.405H46.113Zm-3.056,0h1.528V40.405H43.056Zm3.056,4.585h1.528V44.99H46.113Zm-3.056,0h1.528V44.99H43.056Zm10.7-3.821h1.528V41.169H53.754Zm0,4.585h1.528V45.754H53.754Zm3.056-4.585h1.528V41.169H56.811Zm0,4.585h1.528V45.754H56.811Z" transform="translate(-40 -32)"/>
</svg>
