<svg xmlns="http://www.w3.org/2000/svg" width="31.987" height="36.02" viewBox="0 0 31.987 36.02"><defs><style>.a{fill:#338fce;}</style></defs><path class="a" d="M29.321,34.819V31.711a3,3,0,0,0,1.6-2.895c0-1.655-.956-3-2.132-3s-2.132,1.347-2.132,3a3,3,0,0,0,1.6,2.895v3.109H25.589V16.209a.612.612,0,0,0-.295-.537l-3.97-2.235V10.206a.6.6,0,0,0-.387-.578L13.861,7.351V.6a.57.57,0,0,0-.533-.6H2.666a.57.57,0,0,0-.533.6V34.819H0v1.2H31.987v-1.2Zm-16.526,0H3.2v-1.2H8v-1.2H3.2v-2.4H8v-1.2H3.2v-2.4H8v-1.2H3.2v-2.4H8v-1.2H3.2v-2.4H8v-1.2H3.2v-2.4H8v-1.2H3.2v-2.4H8v-1.2H3.2V8.4H8V7.2H3.2V4.8H8V3.6H3.2V1.2h9.6Zm7.464,0h-6.4v-1.2h3.732v-1.2H13.861v-2.4h3.732v-1.2H13.861v-2.4h3.732v-1.2H13.861v-2.4h3.732v-1.2H13.861v-2.4h3.732v-1.2H13.861v-2.4h3.732v-1.2H13.861v-2.4h3.732v-1.2H13.861V8.6l6.4,2.058Zm4.265,0h-3.2v-1.2h1.6v-1.2h-1.6v-2.4h1.6v-1.2h-1.6v-2.4h1.6v-1.2h-1.6v-2.4h1.6v-1.2h-1.6v-2.4h1.6v-1.2h-1.6V14.779l3.2,1.8Zm3.732-4.46a2.249,2.249,0,0,1-.533-1.543c0-.976.488-1.8,1.066-1.8s1.066.825,1.066,1.8a2.253,2.253,0,0,1-.533,1.543v-.943H28.255Z"/></svg>