<svg xmlns="http://www.w3.org/2000/svg" width="33.587" height="39.514" viewBox="0 0 33.587 39.514">
  <path id="clipboard-checkmark" d="M62.029,26.175l1.408,1.408-4.668,4.643L56.1,29.558l1.408-1.408,1.284,1.284,3.235-3.26Zm-3.26,10.15-1.284-1.284-1.408,1.408,2.667,2.667,4.643-4.643L61.98,33.065l-3.211,3.26ZM43.951,30.818H53.83V28.842H43.951Zm0,6.915H53.83V35.757H43.951Zm0,6.915H53.83V42.672H43.951ZM59.757,55.514H40V17.976h6.915V16h13.83v1.976H67.66V37.93a10.509,10.509,0,0,0-1.976-.2V19.951H60.745v1.976H46.915V19.951H41.976V53.538H57.781A10.69,10.69,0,0,0,59.757,55.514ZM48.891,19.951h9.879V17.976H48.891ZM69.339,46.327l-1.408-1.408L64.7,48.179,63.412,46.9,62,48.3l2.667,2.667Zm4.248,1.284a7.9,7.9,0,1,0-7.9,7.9A7.926,7.926,0,0,0,73.587,47.611Zm-1.976,0a5.927,5.927,0,1,1-5.927-5.927A5.945,5.945,0,0,1,71.611,47.611Z" transform="translate(-40 -16)" fill="#007bc0"/>
</svg>
