<svg xmlns="http://www.w3.org/2000/svg" width="90.639" height="74.371" viewBox="0 0 90.639 74.371">
  <path id="cloud_co2_icon" d="M62.384,92.809l4.608,1.869a9.777,9.777,0,0,1-3.415,4.734,10.213,10.213,0,0,1-6.313,1.933c-6.732,0-11.049-4.606-11.049-11.79,0-7.054,4.477-11.95,10.952-11.95a9.963,9.963,0,0,1,6.958,2.447,10.863,10.863,0,0,1,2.609,3.995L62.16,85.916c-1.1-2.964-2.546-4.156-5.026-4.156-3.544,0-5.541,2.771-5.541,7.7,0,4.96,2.03,7.731,5.67,7.731,2.545,0,4.059-1.321,5.121-4.382ZM91.937,89.4c0,7.054-4.606,11.95-11.242,11.95-6.571,0-11.113-4.831-11.113-11.821,0-6.959,4.7-11.919,11.307-11.919C87.33,77.605,91.937,82.533,91.937,89.4Zm-5.379.1c0-4.767-2.192-7.731-5.735-7.731-3.7,0-5.863,2.835-5.863,7.731,0,4.8,2.19,7.7,5.831,7.7S86.558,94.355,86.558,89.491Zm14.767,13.465c3.542-1.611,5.283-3.7,5.283-6.281,0-2.932-2.223-4.8-5.7-4.8-3.189,0-5.154,1.418-5.9,4.284l4,.934c.29-1.192.741-1.708,1.611-1.708.805,0,1.256.548,1.256,1.515,0,1.964-1.964,3.768-6.764,6.216v3.254h11.532v-3.415Zm-67.589-17.5c-7.216,0-13.088-5.385-13.088-12.6A13.116,13.116,0,0,1,32.834,59.8l2.023-.138.138-2.023A13.083,13.083,0,0,1,53.386,46.594l1.879.84,1.061-1.764a18.594,18.594,0,0,1,34.535,9.571,18.765,18.765,0,0,1-.273,3.157l-.3,1.775,1.643.737a13.084,13.084,0,0,1,3.325,21.744,17.117,17.117,0,0,1,1.207,4.922A17.728,17.728,0,0,0,95.4,57.469c.073-.747.109-1.492.109-2.228a23.243,23.243,0,0,0-42.089-13.6A17.742,17.742,0,0,0,30.594,55.4,17.789,17.789,0,0,0,16,72.856c0,9.78,7.957,17.249,17.736,17.249h8.417l-.007-4.653-8.41,0Z" transform="translate(-16 -32)"/>
</svg>
