<svg xmlns="http://www.w3.org/2000/svg" width="24.879" height="24.879" viewBox="0 0 24.879 24.879">
  <path id="configure_screen_icon" d="M34.659,37.147a2.488,2.488,0,1,1,2.488-2.488A2.5,2.5,0,0,1,34.659,37.147Zm0-3.732A1.244,1.244,0,1,0,35.9,34.659,1.248,1.248,0,0,0,34.659,33.415Zm0,7.464a6.931,6.931,0,0,1-.98-.078l-.4-.062L32.918,39.4c-.124-.047-.264-.109-.389-.155l-1.2.7-.327-.233a6.488,6.488,0,0,1-1.384-1.384L29.388,38l.7-1.2a4.051,4.051,0,0,1-.155-.389l-1.337-.342-.062-.4a6.211,6.211,0,0,1,0-1.959l.062-.4,1.337-.358c.047-.124.109-.264.155-.389l-.7-1.2.233-.327a6.488,6.488,0,0,1,1.384-1.384l.327-.233,1.2.7a4.051,4.051,0,0,1,.389-.155l.342-1.337.4-.062a5.919,5.919,0,0,1,1.959,0l.4.062.358,1.337c.124.047.264.109.389.155l1.2-.7.327.233a6.488,6.488,0,0,1,1.384,1.384l.233.327-.7,1.2a4.047,4.047,0,0,1,.155.389l1.337.342.062.4a6.21,6.21,0,0,1,0,1.959l-.062.4-1.337.358c-.047.124-.109.264-.155.389l.7,1.2-.233.327A6.488,6.488,0,0,1,38.3,39.713l-.327.233-1.2-.7a4.05,4.05,0,0,1-.389.155l-.342,1.337-.4.062A6.93,6.93,0,0,1,34.659,40.879Zm-.389-1.259a6.483,6.483,0,0,0,.777,0l.311-1.213.342-.093a3.548,3.548,0,0,0,.793-.327l.311-.171,1.088.638a4.5,4.5,0,0,0,.544-.544L37.8,36.821l.171-.311a3.548,3.548,0,0,0,.327-.793l.093-.342,1.213-.311a4.867,4.867,0,0,0,0-.777l-1.213-.311-.093-.342a3.548,3.548,0,0,0-.327-.793l-.171-.311.638-1.088a4.5,4.5,0,0,0-.544-.544l-1.088.638-.311-.171a3.548,3.548,0,0,0-.793-.327l-.342-.093-.311-1.213a6.484,6.484,0,0,0-.777,0l-.311,1.213-.342.093a3.548,3.548,0,0,0-.793.327l-.311.171L31.425,30.9a4.5,4.5,0,0,0-.544.544l.638,1.088-.171.311a3.548,3.548,0,0,0-.327.793l-.093.342-1.213.311a4.867,4.867,0,0,0,0,.777l1.213.311.093.342a3.548,3.548,0,0,0,.327.793l.171.311-.638,1.088a4.5,4.5,0,0,0,.544.544l1.088-.638.311.171a3.548,3.548,0,0,0,.793.327l.342.093Zm-6.64-2.472a6.963,6.963,0,0,0,.575,1.244H23.464V37.147h2.488V34.659H16V16H40.879V30.539a7.83,7.83,0,0,0-1.244-1.431V17.244H17.244V33.415H27.3a8.22,8.22,0,0,0-.109,1.244v2.488Z" transform="translate(-16 -16)"/>
</svg>
