<svg xmlns="http://www.w3.org/2000/svg" width="23.795" height="23.794" viewBox="0 0 23.795 23.794">
  <path id="Config_icon" d="M27.9,32.735A4.833,4.833,0,1,1,32.731,27.9,4.839,4.839,0,0,1,27.9,32.735Zm0-8.477A3.644,3.644,0,1,0,31.541,27.9,3.648,3.648,0,0,0,27.9,24.258Zm0,15.541a12.027,12.027,0,0,1-1.878-.149l-.384-.061-.69-2.637a9.49,9.49,0,0,1-1.36-.564l-2.352,1.376-.314-.228a11.938,11.938,0,0,1-2.656-2.656l-.228-.315,1.377-2.351a9.482,9.482,0,0,1-.567-1.367l-2.635-.683-.061-.385a11.922,11.922,0,0,1,0-3.755l.061-.384,2.637-.69a9.483,9.483,0,0,1,.565-1.361l-1.376-2.351.228-.315a11.938,11.938,0,0,1,2.656-2.656l.314-.228,2.351,1.376a9.474,9.474,0,0,1,1.367-.567l.683-2.635.385-.061a11.975,11.975,0,0,1,3.755,0l.384.061.69,2.637a9.47,9.47,0,0,1,1.36.565l2.352-1.376.314.228a11.938,11.938,0,0,1,2.656,2.656l.228.315-1.377,2.351a9.483,9.483,0,0,1,.567,1.367l2.635.683.061.385a11.91,11.91,0,0,1,0,3.755l-.061.384-2.637.69a9.484,9.484,0,0,1-.565,1.361l1.376,2.351-.228.315a11.938,11.938,0,0,1-2.656,2.656l-.314.228L32.21,36.387a9.488,9.488,0,0,1-1.367.567l-.683,2.635-.385.061A12.029,12.029,0,0,1,27.9,39.8Zm-1.309-1.27a10.722,10.722,0,0,0,2.618,0L29.86,36l.327-.093a8.281,8.281,0,0,0,1.747-.725l.3-.165,2.254,1.319a10.744,10.744,0,0,0,1.852-1.852l-1.319-2.254.165-.3A8.29,8.29,0,0,0,35.9,30.2L36,29.872l2.526-.661a10.677,10.677,0,0,0,0-2.618L36,25.939l-.093-.327a8.289,8.289,0,0,0-.725-1.747l-.165-.3,1.319-2.253a10.741,10.741,0,0,0-1.852-1.852L32.23,20.782l-.3-.165a8.284,8.284,0,0,0-1.74-.722l-.326-.093-.661-2.527a10.725,10.725,0,0,0-2.618,0L25.935,19.8l-.327.093a8.284,8.284,0,0,0-1.747.725l-.3.165L21.31,19.463a10.741,10.741,0,0,0-1.852,1.852l1.319,2.254-.165.3a8.285,8.285,0,0,0-.723,1.741l-.093.326-2.526.661a10.7,10.7,0,0,0,0,2.618l2.525.654.094.327a8.28,8.28,0,0,0,.725,1.747l.165.3-1.319,2.253A10.739,10.739,0,0,0,21.31,36.34l2.254-1.319.3.165a8.289,8.289,0,0,0,1.74.722l.326.093Z" transform="translate(-16 -16.005)" fill="#007bc0"/>
</svg>
