<svg xmlns="http://www.w3.org/2000/svg" width="30.565" height="30.571" viewBox="0 0 30.565 30.571">
  <path id="Countries_icon" d="M23.641,20.585a1.528,1.528,0,1,1,1.528,1.528A1.528,1.528,0,0,1,23.641,20.585ZM21.33,23.559a5.78,5.78,0,0,1-.746-2.954,4.585,4.585,0,1,1,9.169,0,5.784,5.784,0,0,1-.745,2.954c-.564.97-3.154,5.39-3.18,5.435l-.659,1.125-.659-1.125c-.026-.045-2.617-4.464-3.18-5.435Zm.783-2.954a4.282,4.282,0,0,0,.522,2.157l.012.02c.375.646,1.706,2.919,2.523,4.314.817-1.395,2.148-3.668,2.523-4.314l.012-.02a4.285,4.285,0,0,0,.522-2.157,3.057,3.057,0,1,0-6.113,0ZM46.565,31.289a15.282,15.282,0,1,1-27.4-9.3,7.321,7.321,0,0,0,.446,1.558h0a5.732,5.732,0,0,0,.4.8c.163.281.475.815.842,1.443a10.109,10.109,0,0,0-.2,1.43,2.119,2.119,0,0,1-.916,1.2c-.256.168-.487.372-.736.551a.762.762,0,0,0-.318.59,2.914,2.914,0,0,0,.667,1.979c.237.333.313.364.684.208a1.28,1.28,0,0,1,1.147.068,1.913,1.913,0,0,1,.441.276A7.112,7.112,0,0,0,23.265,33.2a2.171,2.171,0,0,1,.471.361.766.766,0,0,1,.237.342.831.831,0,0,0,.622.61c.164.058.325.124.487.186.534.2,1.077.384,1.6.614a.875.875,0,0,1,.5,1.112,3.456,3.456,0,0,1-.26.616,1.493,1.493,0,0,0-.169.96c.029.163.043.329.06.494a.8.8,0,0,1-.507.964,2.926,2.926,0,0,0-.469.322.874.874,0,0,0-.34.767,2.769,2.769,0,0,1-.211,1.357,1.567,1.567,0,0,0,.136,1.154.957.957,0,0,0,.611.529l.463.6A13.748,13.748,0,0,0,44.82,28.865c-.1.245-.434.718-.494.911a1.172,1.172,0,0,1-.7.782c-.29.12-.32.2-.206.492a2.425,2.425,0,0,0,.113.253,1.29,1.29,0,0,1-.169,1.522,11.382,11.382,0,0,0-.981,1.465,1.732,1.732,0,0,0-.231.956,2.8,2.8,0,0,1-.449,1.92c-.1.155-.184.321-.273.484a10.154,10.154,0,0,1-1.97,2.761,5.349,5.349,0,0,1-1.167.817.646.646,0,0,1-.962-.429c-.253-.731-.46-1.477-.722-2.2a1.917,1.917,0,0,1,.065-1.582,1.428,1.428,0,0,0-.028-1.359,3.209,3.209,0,0,1-.386-.873,4.087,4.087,0,0,0-.758-1.672c-.223-.311-.3-.372-.659-.245-.4.141-.806.294-1.212.432a1.607,1.607,0,0,1-1.406-.147A4.424,4.424,0,0,1,30.637,31.6a2.216,2.216,0,0,1-.334-1.591,7.265,7.265,0,0,0,.1-.979,2.741,2.741,0,0,1,1.1-2.1,10.125,10.125,0,0,0,1.2-1.438,1,1,0,0,1-.714-.619,1.827,1.827,0,0,1,.637-2.047,1.9,1.9,0,0,1,1.254-.287.93.93,0,0,0,.853-.334.618.618,0,0,1,.171-.148c.173-.1.181-.218.1-.4-.3-.688-.124-1.156.591-1.383a10.442,10.442,0,0,0,1.927-.984q-.078-.04-.153-.087a8.515,8.515,0,0,0-4-1.252c-.15-.021-.359.258-.4.4a.742.742,0,0,1-.183.291c-.165.178-.352.336-.518.513a2.757,2.757,0,0,1-1.038.7,6.135,6.135,0,0,0-1.892-3.725A15.254,15.254,0,0,1,46.565,31.288Zm-9.544-6.327c-.47-.239-.921-.514-1.392-.75a.56.56,0,0,0-.443-.042,3.4,3.4,0,0,0-.9.971c1.006-.184,1.967-.55,2.848.287-.062-.179.126-.345-.114-.467ZM40.533,26a1.315,1.315,0,0,0-.486-.191c-.347-.055-.7-.078-1.052-.1-.327-.024-.645-.055-.822-.417a.834.834,0,0,1-.923.366c.075.17.131.29.181.413a.8.8,0,0,0,.877.562,4.69,4.69,0,0,1,1.547.143,1.109,1.109,0,0,0,.61-.049A.4.4,0,0,0,40.533,26ZM21.77,41.063c-.1-.532-.317-1.541-.387-2.046a2.029,2.029,0,0,0-.624-1.227,5.264,5.264,0,0,1-1.627-3.975c.01-.707-1.067-1.5-1.367-2.013C17.524,35.108,19.358,39.321,21.77,41.063Z" transform="translate(-16 -16)"/>
</svg>
