<svg xmlns="http://www.w3.org/2000/svg" width="36.02" height="36.02" viewBox="0 0 36.02 36.02"><defs><style>.a{fill:#338fce;}</style></defs><g transform="translate(0)"><path class="a" d="M30.745,5.275Q30.38,4.91,30,4.569l-.012-.01a18.008,18.008,0,0,0-23.951,0l-.012.011q-.382.341-.748.706a18.01,18.01,0,1,0,25.47,25.47,18.01,18.01,0,0,0,0-25.47Zm4.164,12.184H26.954a32.41,32.41,0,0,0-1.389-9.174,17.983,17.983,0,0,0,4.04-2.57A16.866,16.866,0,0,1,34.909,17.459ZM28.77,4.976a16.88,16.88,0,0,1-3.564,2.26C24.974,6.6,24.72,6,24.444,5.426a12.194,12.194,0,0,0-2.819-3.934A16.861,16.861,0,0,1,28.77,4.976ZM18.561,1.144c1.818.281,3.538,1.945,4.891,4.759.269.559.516,1.15.742,1.769a16.9,16.9,0,0,1-5.633,1.16Zm-1.1,0V8.833a16.9,16.9,0,0,1-5.633-1.16c.226-.619.473-1.211.742-1.769C13.922,3.089,15.641,1.425,17.459,1.144ZM14.4,1.492a12.2,12.2,0,0,0-2.819,3.934C11.3,6,11.046,6.6,10.814,7.236A16.88,16.88,0,0,1,7.25,4.976,16.863,16.863,0,0,1,14.4,1.492ZM6.415,5.715a17.984,17.984,0,0,0,4.04,2.57,32.41,32.41,0,0,0-1.389,9.174H1.111A16.865,16.865,0,0,1,6.415,5.715Zm-5.3,12.846H9.066a32.495,32.495,0,0,0,1.359,9.077,17.982,17.982,0,0,0-4.073,2.609A16.864,16.864,0,0,1,1.111,18.561ZM7.184,30.987a16.882,16.882,0,0,1,3.6-2.3c.242.667.508,1.3.8,1.905A12.194,12.194,0,0,0,14.4,34.528,16.861,16.861,0,0,1,7.184,30.987Zm10.276,3.888c-1.818-.281-3.538-1.945-4.891-4.759a19.68,19.68,0,0,1-.778-1.867,16.9,16.9,0,0,1,5.669-1.174Zm.551-9.568a.551.551,0,0,0-.551.551v.116a18,18,0,0,0-6.017,1.23,31.456,31.456,0,0,1-1.275-8.643h1.651a.551.551,0,1,0,0-1.1H10.168a31.359,31.359,0,0,1,1.306-8.742,18,18,0,0,0,5.986,1.217v.194a.551.551,0,1,0,1.1,0V9.935a18,18,0,0,0,5.986-1.217,31.359,31.359,0,0,1,1.306,8.742H23.988a.551.551,0,1,0,0,1.1h1.864A31.456,31.456,0,0,1,24.577,27.2a18,18,0,0,0-6.017-1.23v-.116A.551.551,0,0,0,18.01,25.308Zm.551,9.568v-7.8a16.9,16.9,0,0,1,5.669,1.174,19.679,19.679,0,0,1-.778,1.867C22.1,32.931,20.379,34.6,18.561,34.876Zm3.064-.347a12.2,12.2,0,0,0,2.819-3.934,20.648,20.648,0,0,0,.8-1.905,16.877,16.877,0,0,1,3.6,2.3A16.863,16.863,0,0,1,21.625,34.528Zm8.043-4.282a17.985,17.985,0,0,0-4.073-2.609,32.495,32.495,0,0,0,1.359-9.077h7.955A16.864,16.864,0,0,1,29.668,30.247Z" transform="translate(0)"/></g><g transform="translate(15.293 11.542)"><path class="a" d="M205.331,164.058a3.839,3.839,0,0,0-3.834,3.834c0,1.9,3.012,7.257,3.356,7.861a.551.551,0,0,0,.957,0c.344-.6,3.356-5.956,3.356-7.861A3.839,3.839,0,0,0,205.331,164.058Zm0,10.29c-1.238-2.275-2.733-5.376-2.733-6.455a2.733,2.733,0,0,1,5.466,0C208.064,168.971,206.57,172.073,205.331,174.348Z" transform="translate(-201.497 -164.058)"/></g><g transform="translate(18.577 13.88)"><path class="a" d="M248.724,197.3a.551.551,0,0,0-.551.551v1.779a.551.551,0,0,0,1.1,0v-1.779A.551.551,0,0,0,248.724,197.3Z" transform="translate(-248.173 -197.301)"/></g></svg>