<svg xmlns="http://www.w3.org/2000/svg" width="29.324" height="23.459" viewBox="0 0 29.324 23.459">
  <path id="dashboard_icon_white" d="M45.324,51.061V32H16V51.061H27.73v2.932H24.8v1.466h11.73V53.993H33.594V51.061ZM17.466,33.466H43.858V49.594H17.466ZM32.128,53.993H29.2V51.061h2.932Zm-6.6-8.064h-6.6v-6.6h6.6ZM20.4,44.463h3.666V40.8H20.4Zm13.929,1.466H27v-6.6h7.331Zm-5.865-1.466h4.4V40.8h-4.4Zm13.929,1.466h-6.6v-6.6h6.6ZM37.26,44.463h3.666V40.8H37.26Zm-6.6-8.064H18.932V34.932h11.73Zm11.73,0H40.925V34.932h1.466Zm-2.932,0H37.993V34.932h1.466Z" transform="translate(-16 -32)" fill="#fff"/>
</svg>
