<svg xmlns="http://www.w3.org/2000/svg" width="27.319" height="28.2" viewBox="0 0 27.319 28.2">
  <path id="devices_icon" d="M127.1,160.585a1.816,1.816,0,0,0-2.1-1.807,13.537,13.537,0,0,0-5.548-5.44c-.074-.041-.147-.081-.221-.118l0,0a13.421,13.421,0,0,0-15.746,2.763,1.826,1.826,0,0,0-2.056,2.813,13.438,13.438,0,0,0,8.136,19.383,1.828,1.828,0,0,0,3.583.5h.074A13.445,13.445,0,0,0,126.3,162.1,1.827,1.827,0,0,0,127.1,160.585Zm-26.292,4.66a12.338,12.338,0,0,1,1.45-5.817,1.827,1.827,0,0,0,2.078-2.843A12.4,12.4,0,0,1,115.294,153l-.944,2.086a10.218,10.218,0,0,0-11.34,10.155,10.154,10.154,0,0,0,1.185,4.771,6.6,6.6,0,0,1,.67-.962,9.188,9.188,0,0,1,8.362-13c.227,0,.452.009.675.025l-5.827,12.882,2.736-1.694-1.368,6.349a9.23,9.23,0,0,1-2.682-1.85,2.247,2.247,0,0,0-.121.328,2.124,2.124,0,0,0-.037.922,10.241,10.241,0,0,0,2.619,1.626l-.47,2.181a12.38,12.38,0,0,1-1.814-.88c-1.2-1.586-1.619-2.936-1.288-4.125a3.536,3.536,0,0,1,.43-.944l1.2-2.648a6.432,6.432,0,0,0-2.618,3.316,4.457,4.457,0,0,0,.215,2.879A12.385,12.385,0,0,1,100.812,165.245Zm24.829,0a12.429,12.429,0,0,1-12.415,12.415h-.075a1.827,1.827,0,0,0-3.3-.465q-.476-.134-.935-.305l1.188-1.915a10.217,10.217,0,0,0,12.613-13.5,8.094,8.094,0,0,1-.752.941,9.19,9.19,0,0,1-11.3,11.658l7.049-11.363-3.735,1.868,1.06-8.34a9.2,9.2,0,0,1,5.319,3.223,2.6,2.6,0,0,0,.33-1.11c0-.024,0-.048,0-.072a10.214,10.214,0,0,0-5.52-3.062l.278-2.185a12.32,12.32,0,0,1,3.509,1.2c1.423.793,2.846,2.387,2.759,4.165a5.111,5.111,0,0,1-2.381,3.649l-1.247,2.011c3.644-2.008,4.58-4.094,4.654-5.61a4.386,4.386,0,0,0-.144-1.338,12.472,12.472,0,0,1,1.474,2.1,1.827,1.827,0,0,0,1.2,3.2l.04,0A12.4,12.4,0,0,1,125.641,165.245Z" transform="translate(-99.784 -151.803)"/>
</svg>
