<svg xmlns="http://www.w3.org/2000/svg" xmlns:xlink="http://www.w3.org/1999/xlink" width="1280" height="210" viewBox="0 0 1280 210">
  <defs>
    <linearGradient id="linear-gradient" x1="1.025" y1="1" x2="-0.1" y2="0.105" gradientUnits="objectBoundingBox">
      <stop offset="0" stop-color="#00a8b0" stop-opacity="0.69"/>
      <stop offset="0.459" stop-color="#008ecf" stop-opacity="0.749"/>
      <stop offset="1" stop-color="#005691"/>
    </linearGradient>
    <linearGradient id="linear-gradient-2" x1="1.025" y1="1" x2="-0.1" y2="0.105" xlink:href="#linear-gradient"/>
    <clipPath id="clip-path">
      <rect id="Rectangle_173" data-name="Rectangle 173" width="1281" height="209" transform="translate(0 94)" fill="#1f0"/>
    </clipPath>
    <clipPath id="clip-path-2">
      <rect id="Rectangle_162" data-name="Rectangle 162" width="1281" height="208.667" fill="#00fff6"/>
    </clipPath>
    <linearGradient id="linear-gradient-3" x1="0.5" x2="0.5" y2="1" gradientUnits="objectBoundingBox">
      <stop offset="0" stop-color="red"/>
      <stop offset="0.238" stop-color="#b90276"/>
      <stop offset="0.494" stop-color="#50237f"/>
      <stop offset="0.766" stop-color="#005691"/>
      <stop offset="1" stop-color="#008ecf"/>
    </linearGradient>
    <filter id="Rectangle_177" x="1084.5" y="137.5" width="21" height="23" filterUnits="userSpaceOnUse">
      <feOffset input="SourceAlpha"/>
      <feGaussianBlur stdDeviation="2.5" result="blur"/>
      <feFlood flood-color="#fff"/>
      <feComposite operator="in" in2="blur"/>
      <feComposite in="SourceGraphic"/>
    </filter>
    <filter id="Rectangle_181" x="1163.5" y="86.5" width="21" height="23" filterUnits="userSpaceOnUse">
      <feOffset input="SourceAlpha"/>
      <feGaussianBlur stdDeviation="2.5" result="blur-2"/>
      <feFlood flood-color="#fff"/>
      <feComposite operator="in" in2="blur-2"/>
      <feComposite in="SourceGraphic"/>
    </filter>
    <clipPath id="clip-path-3">
      <path id="Path_444" data-name="Path 444" d="M0,0H1281V209.667H0Z" transform="translate(-1 87)" fill="url(#linear-gradient)"/>
    </clipPath>
    <linearGradient id="linear-gradient-5" x1="0.204" y1="0.5" x2="1.232" y2="0.881" gradientUnits="objectBoundingBox">
      <stop offset="0" stop-color="#008ecf"/>
      <stop offset="1" stop-color="#61f8ff" stop-opacity="0.702"/>
    </linearGradient>
    <clipPath id="clip-_03">
      <rect width="1280" height="210"/>
    </clipPath>
  </defs>
  <g id="_03" data-name="03" clip-path="url(#clip-_03)">
    <rect width="1280" height="210" fill="#fff"/>
    <g id="Group_774" data-name="Group 774" transform="translate(0 -86)">
      <path id="Path_339" data-name="Path 339" d="M0,0H1281V209.667H0Z" transform="translate(-1 87)" fill="url(#linear-gradient-2)"/>
      <g id="Mask_Group_6" data-name="Mask Group 6" transform="translate(1 -7)" clip-path="url(#clip-path)">
        <rect id="Rectangle_160" data-name="Rectangle 160" width="274" height="300" rx="50" transform="matrix(0.875, 0.485, -0.485, 0.875, 1124.899, 222.776)" fill="#fff" opacity="0.07"/>
        <rect id="Rectangle_161" data-name="Rectangle 161" width="68" height="395" rx="34" transform="matrix(0.839, 0.545, -0.545, 0.839, 1020.019, 240.059)" fill="#fff" opacity="0.08"/>
        <path id="Path_370" data-name="Path 370" d="M234,0C363.235,0,468,104.765,468,234S363.235,468,234,468,0,363.235,0,234,104.765,0,234,0Z" transform="translate(-135 -193.612)" fill="#fff" opacity="0.06"/>
      </g>
      <line id="Line_76" data-name="Line 76" x2="1280" transform="translate(0.5 86.5)" fill="none" stroke="rgba(191,192,194,0.5)" stroke-width="1"/>
      <circle id="Ellipse_19" data-name="Ellipse 19" cx="46" cy="46" r="46" transform="translate(319 123.388)" fill="#fff" opacity="0.07"/>
      <path id="Subtraction_11" data-name="Subtraction 11" d="M28.886,152.84H15.91A15.928,15.928,0,0,1,0,136.93V15.911A15.928,15.928,0,0,1,15.91,0h65.1a2.356,2.356,0,0,1,0,4.713H76.89v40.33A2.359,2.359,0,0,1,74.534,47.4H34.691a2.356,2.356,0,0,1,0-4.713H45.533V28.3a2.356,2.356,0,1,1,4.713,0V42.686H72.176V4.713H37.047v9.63h24.04A2.359,2.359,0,0,1,63.444,16.7V31.043a2.356,2.356,0,1,1-4.713,0V19.056H34.691A2.359,2.359,0,0,1,32.334,16.7V4.713H22.959v26.33A2.359,2.359,0,0,1,20.6,33.4h-6a2.357,2.357,0,0,1,0-4.713h3.64V4.714H15.91a11.21,11.21,0,0,0-11.2,11.2V42.687H20.6a2.356,2.356,0,1,1,0,4.713H4.713V73.1h9.893a2.356,2.356,0,1,1,0,4.713H4.713V136.93a11.21,11.21,0,0,0,11.2,11.2H28.886a2.356,2.356,0,1,1,0,4.713Zm121.6,0H62.435a2.357,2.357,0,1,1,0-4.713h9.742V97.379a2.359,2.359,0,0,1,2.357-2.357H98.96V85.649a2.359,2.359,0,0,1,2.357-2.357H123.7a2.359,2.359,0,0,1,2.356,2.357V89.7a2.356,2.356,0,0,1-4.713,0v-1.7H103.674v7.017h44.452V51.528h-13.8a2.359,2.359,0,0,1-2.356-2.357V28.3a2.359,2.359,0,0,1,2.356-2.357h6.4a2.356,2.356,0,1,1,0,4.713h-4.04v16.16h11.446V15.91a11.21,11.21,0,0,0-11.2-11.2h-13.9a2.356,2.356,0,1,1,0-4.713h13.9a15.91,15.91,0,0,1,15.91,15.91V150.482A2.359,2.359,0,0,1,150.482,152.839ZM76.89,126.287v21.839h71.236V126.287h-5.707a2.356,2.356,0,1,1,0-4.713h5.707V99.736H76.89v21.838H131.92a2.356,2.356,0,1,1,0,4.713H119.837v10.278a2.359,2.359,0,0,1-2.357,2.357h-9.944a2.359,2.359,0,0,1-2.356-2.357v-5.48a2.356,2.356,0,0,1,4.713,0v3.124h5.231v-7.921ZM14.606,135.5a2.359,2.359,0,0,1-2.357-2.357V89.215a2.357,2.357,0,0,1,4.713,0v7.057h7.369V66.227H14.606a2.357,2.357,0,0,1,0-4.713H26.688a2.359,2.359,0,0,1,2.356,2.357V98.629a2.359,2.359,0,0,1-2.356,2.357H16.963v32.16A2.359,2.359,0,0,1,14.606,135.5Zm33.406-10.095V71.424a2.359,2.359,0,0,1,2.357-2.356h51.646l.56-30.629h4.154V71.391a2.392,2.392,0,0,1-.69,1.683,2.32,2.32,0,0,1-1.666.707H52.725v51.626H48.012Zm-10.47,0V60.954A2.358,2.358,0,0,1,39.9,58.6H91.545V38.44h4.713V60.954A2.359,2.359,0,0,1,93.9,63.311H42.254v62.1H37.542Zm84.811-51.66A2.359,2.359,0,0,1,120,71.391V18.874a2.356,2.356,0,1,1,4.713,0V58.6H136.68a2.357,2.357,0,0,1,0,4.713H124.709v8.079A2.359,2.359,0,0,1,122.353,73.747Z" transform="translate(1027 116.161)" fill="#fff" opacity="0.53"/>
      <g id="washing-machine" transform="translate(1084 245.609)">
        <path id="Path_413" data-name="Path 413" d="M.278,16.7H12.522a.278.278,0,0,0,.278-.278V.278A.278.278,0,0,0,12.522,0H.278A.278.278,0,0,0,0,.278V16.417A.278.278,0,0,0,.278,16.7ZM12.243,3.9v11.13H.557V3.9ZM.557,16.139v-.557H12.243v.557Zm11.687-12.8H4.452V.557h7.791ZM.557.557H3.9V3.339H.557Zm0,0" fill="#fff" stroke="#fff" stroke-width="0.75"/>
        <path id="Path_415" data-name="Path 415" d="M169.113,40.557a.557.557,0,1,1-.557-.557A.557.557,0,0,1,169.113,40.557Zm0,0" transform="translate(-162.157 -38.609)" fill="#fff" stroke="#fff" stroke-width="0.75"/>
        <path id="Path_416" data-name="Path 416" d="M75.9,167.791a3.9,3.9,0,1,0-3.9-3.9A3.9,3.9,0,0,0,75.9,167.791Zm0-7.235a3.339,3.339,0,1,1-3.339,3.339A3.339,3.339,0,0,1,75.9,160.557Zm0,0" transform="translate(-69.496 -154.435)" fill="#fff" stroke="#fff" stroke-width="0.75"/>
      </g>
      <g transform="matrix(1, 0, 0, 1, 0, 86)" filter="url(#Rectangle_177)">
        <rect id="Rectangle_177-2" data-name="Rectangle 177" width="6" height="8" transform="translate(1092 145)" opacity="0.83" fill="url(#linear-gradient-3)"/>
      </g>
      <g id="Layer_2" data-name="Layer 2" transform="translate(1156.511 190.333)">
        <path id="Path_417" data-name="Path 417" d="M14.605,16H6.4A1.4,1.4,0,0,1,5,14.6V2.395A1.4,1.4,0,0,1,6.4,1h8.21A1.4,1.4,0,0,1,16,2.4V14.6A1.4,1.4,0,0,1,14.605,16ZM6.4,2A.4.4,0,0,0,6,2.4V14.6A.4.4,0,0,0,6.4,15h8.21a.4.4,0,0,0,.4-.4V2.395a.4.4,0,0,0-.395-.4Z" fill="#fff" stroke="#fff" stroke-width="0.75"/>
        <rect id="Rectangle_178" data-name="Rectangle 178" width="10" height="1" transform="translate(5.5 6.5)" fill="#fff" stroke="#fff" stroke-width="0.75"/>
        <rect id="Rectangle_179" data-name="Rectangle 179" width="1" height="2" rx="0.5" transform="translate(13.425 10.215)" fill="#fff" stroke="#fff" stroke-width="0.75"/>
        <rect id="Rectangle_180" data-name="Rectangle 180" width="1" height="2" rx="0.5" transform="translate(13.425 3.135)" fill="#fff" stroke="#fff" stroke-width="0.75"/>
      </g>
      <g transform="matrix(1, 0, 0, 1, 0, 86)" filter="url(#Rectangle_181)">
        <rect id="Rectangle_181-2" data-name="Rectangle 181" width="6" height="8" transform="translate(1171 94)" opacity="0.83" fill="url(#linear-gradient-3)"/>
      </g>
      <g id="Ellipse_24" data-name="Ellipse 24" transform="translate(1085 225)" fill="none" stroke="red" stroke-width="1" opacity="0.43">
        <circle cx="10" cy="10" r="10" stroke="none"/>
        <circle cx="10" cy="10" r="9.5" fill="none"/>
      </g>
      <g id="Ellipse_25" data-name="Ellipse 25" transform="translate(1081 221)" fill="none" stroke="#b90276" stroke-width="1" opacity="0.48">
        <circle cx="14" cy="14" r="14" stroke="none"/>
        <circle cx="14" cy="14" r="13.5" fill="none"/>
      </g>
      <g id="Ellipse_26" data-name="Ellipse 26" transform="translate(1078 218)" fill="none" stroke="#50237f" stroke-width="1" opacity="0.35">
        <circle cx="17" cy="17" r="17" stroke="none"/>
        <circle cx="17" cy="17" r="16.5" fill="none"/>
      </g>
      <g id="Ellipse_27" data-name="Ellipse 27" transform="translate(1075 215)" fill="none" stroke="#005691" stroke-width="1" opacity="0.33">
        <circle cx="20" cy="20" r="20" stroke="none"/>
        <circle cx="20" cy="20" r="19.5" fill="none"/>
      </g>
      <g id="Ellipse_28" data-name="Ellipse 28" transform="translate(1072 212)" fill="none" stroke="#008ecf" stroke-width="1" opacity="0.32">
        <circle cx="23" cy="23" r="23" stroke="none"/>
        <circle cx="23" cy="23" r="22.5" fill="none"/>
      </g>
      <g id="Ellipse_29" data-name="Ellipse 29" transform="translate(1069 209)" fill="none" stroke="#00a8b0" stroke-width="1" opacity="0.25">
        <circle cx="26" cy="26" r="26" stroke="none"/>
        <circle cx="26" cy="26" r="25.5" fill="none"/>
      </g>
      <g id="Ellipse_30" data-name="Ellipse 30" transform="translate(1164 174)" fill="none" stroke="red" stroke-width="1" opacity="0.43">
        <circle cx="10" cy="10" r="10" stroke="none"/>
        <circle cx="10" cy="10" r="9.5" fill="none"/>
      </g>
      <g id="Ellipse_31" data-name="Ellipse 31" transform="translate(1160 170)" fill="none" stroke="#b90276" stroke-width="1" opacity="0.48">
        <circle cx="14" cy="14" r="14" stroke="none"/>
        <circle cx="14" cy="14" r="13.5" fill="none"/>
      </g>
      <g id="Ellipse_32" data-name="Ellipse 32" transform="translate(1157 167)" fill="none" stroke="#50237f" stroke-width="1" opacity="0.35">
        <circle cx="17" cy="17" r="17" stroke="none"/>
        <circle cx="17" cy="17" r="16.5" fill="none"/>
      </g>
      <g id="Ellipse_33" data-name="Ellipse 33" transform="translate(1154 164)" fill="none" stroke="#005691" stroke-width="1" opacity="0.33">
        <circle cx="20" cy="20" r="20" stroke="none"/>
        <circle cx="20" cy="20" r="19.5" fill="none"/>
      </g>
      <g id="Ellipse_34" data-name="Ellipse 34" transform="translate(1151 161)" fill="none" stroke="#008ecf" stroke-width="1" opacity="0.32">
        <circle cx="23" cy="23" r="23" stroke="none"/>
        <circle cx="23" cy="23" r="22.5" fill="none"/>
      </g>
      <g id="Ellipse_35" data-name="Ellipse 35" transform="translate(1148 158)" fill="none" stroke="#00a8b0" stroke-width="1" opacity="0.25">
        <circle cx="26" cy="26" r="26" stroke="none"/>
        <circle cx="26" cy="26" r="25.5" fill="none"/>
      </g>
      <g id="Mask_Group_8" data-name="Mask Group 8" clip-path="url(#clip-path-3)">
        <path id="Path_418" data-name="Path 418" d="M200.3,0C254.285,0,303.281,8.848,339.5,23.312,377.094,38.329,400.6,59.52,400.6,82.987c0,45.832-89.678,82.987-200.3,82.987S0,128.819,0,82.987,89.678,0,200.3,0Z" transform="translate(105.37 115.938)" opacity="0.8" fill="url(#linear-gradient-5)"/>
      </g>
    </g>
  </g>
</svg>
