<svg xmlns="http://www.w3.org/2000/svg" width="46.02" height="39.202" viewBox="0 0 46.02 39.202">
  <g id="flash_icon2" transform="translate(-676.99 -358.286)">
    <path id="Path_7158" data-name="Path 7158" d="M717.369,384.556h0l-.159-.077a1.461,1.461,0,0,0-1.955.643,16.979,16.979,0,0,1-15.08,9.558h-.011A16.734,16.734,0,0,1,683.674,380.9l-.1-.536,3.746-.348-5.537-6.107-4.8,6.991,3.7-.336.075.459a19.655,19.655,0,0,0,37.1,5.327,1.32,1.32,0,0,0-.5-1.8Z"/>
    <path id="Path_7159" data-name="Path 7159" d="M706.092,376.24a.746.746,0,0,0-.272-.509.8.8,0,0,0-.482-.171h-5.221l3-7.7c.042-.179-.167-.294-.192-.306-.14-.073-.205,0-.226.028l-.032-.021.029.023-8.781,10.245a.628.628,0,0,0-.123.459.636.636,0,0,0,.239.43.643.643,0,0,0,.391.139h5.808l-3.776,9.287,9.476-11.35A.738.738,0,0,0,706.092,376.24Z"/>
    <path id="Path_7160" data-name="Path 7160" d="M683.219,371.1a1.461,1.461,0,0,0,1.963-.654,16.739,16.739,0,0,1,14.907-9.252h.08a16.962,16.962,0,0,1,16.488,13.673l.107.546-2.978.255,5.047,5.689,4.177-6.5-3.456.249-.076-.448a19.631,19.631,0,0,0-36.913-5.517,1.464,1.464,0,0,0,.654,1.963Z"/>
  </g>
</svg>
