<svg xmlns="http://www.w3.org/2000/svg" width="140" height="68" viewBox="0 0 140 68">
  <g id="Flash_dotline_icon" transform="translate(-740 -452)">
    <path id="flash_icon" d="M55.614,79.363,68.465,49.376H50.742L86.519,11.363l-13,28.164h17.5L55.613,79.363Zm2.726-33.27h15.1L66.6,62.063,83.713,42.81H68.389l6.7-14.511Z" transform="translate(739.258 440.637)" fill="#007bc0"/>
    <g id="Group_5832" data-name="Group 5832">
      <rect id="Rectangle_964" data-name="Rectangle 964" width="4" height="4" transform="translate(740 496)" fill="#a4abb3"/>
      <rect id="Rectangle_964-2" data-name="Rectangle 964" width="4" height="4" transform="translate(748 496)" fill="#a4abb3"/>
      <rect id="Rectangle_964-3" data-name="Rectangle 964" width="4" height="4" transform="translate(756 496)" fill="#a4abb3"/>
      <rect id="Rectangle_964-4" data-name="Rectangle 964" width="4" height="4" transform="translate(764 496)" fill="#a4abb3"/>
      <rect id="Rectangle_964-5" data-name="Rectangle 964" width="4" height="4" transform="translate(772 496)" fill="#a4abb3"/>
      <rect id="Rectangle_964-6" data-name="Rectangle 964" width="4" height="4" transform="translate(780 496)" fill="#a4abb3"/>
      <rect id="Rectangle_964-7" data-name="Rectangle 964" width="4" height="4" transform="translate(788 496)" fill="#a4abb3"/>
      <rect id="Rectangle_964-8" data-name="Rectangle 964" width="4" height="4" transform="translate(796 496)" fill="#a4abb3"/>
      <rect id="Rectangle_964-9" data-name="Rectangle 964" width="4" height="4" transform="translate(804 496)" fill="#a4abb3"/>
      <rect id="Rectangle_964-10" data-name="Rectangle 964" width="4" height="4" transform="translate(812 496)" fill="#a4abb3"/>
      <rect id="Rectangle_964-11" data-name="Rectangle 964" width="4" height="4" transform="translate(820 496)" fill="#a4abb3"/>
      <rect id="Rectangle_964-12" data-name="Rectangle 964" width="4" height="4" transform="translate(828 496)" fill="#a4abb3"/>
      <rect id="Rectangle_964-13" data-name="Rectangle 964" width="4" height="4" transform="translate(836 496)" fill="#a4abb3"/>
      <rect id="Rectangle_964-14" data-name="Rectangle 964" width="4" height="4" transform="translate(844 496)" fill="#a4abb3"/>
      <rect id="Rectangle_964-15" data-name="Rectangle 964" width="4" height="4" transform="translate(852 496)" fill="#a4abb3"/>
      <rect id="Rectangle_964-16" data-name="Rectangle 964" width="4" height="4" transform="translate(860 496)" fill="#a4abb3"/>
      <rect id="Rectangle_964-17" data-name="Rectangle 964" width="4" height="4" transform="translate(868 496)" fill="#a4abb3"/>
      <rect id="Rectangle_964-18" data-name="Rectangle 964" width="4" height="4" transform="translate(876 496)" fill="#a4abb3"/>
    </g>
  </g>
</svg>
