<svg xmlns="http://www.w3.org/2000/svg" width="80.536" height="81.342" viewBox="0 0 80.536 81.342">
  <g id="Flash_solar_icon" transform="translate(-735.874 -328.971)">
    <g id="Group_5829" data-name="Group 5829">
      <path id="Path_7182" data-name="Path 7182" d="M775.555,369.484l-11.4,5.82,8.1,4.136,4.267-9.957Z" fill="#a4abb3"/>
      <path id="Path_7183" data-name="Path 7183" d="M790.284,388.646l11.984-6.12-11.984-6.12-2.193,1.12-6.113,6.878Z" fill="#a4abb3"/>
      <path id="Path_7184" data-name="Path 7184" d="M804.426,383.629l-11.984,6.12,11.984,6.12,11.984-6.12Z" fill="#a4abb3"/>
      <path id="Path_7185" data-name="Path 7185" d="M762,376.406l-11.984,6.12L762,388.646l8.082-4.127,1.4-3.27Z" fill="#a4abb3"/>
      <path id="Path_7186" data-name="Path 7186" d="M764.158,389.749l3.021,1.543,1.693-3.95Z" fill="#a4abb3"/>
      <path id="Path_7187" data-name="Path 7187" d="M776.142,395.869l11.984-6.12-7.5-3.828-7.482,8.419Z" fill="#a4abb3"/>
      <path id="Path_7188" data-name="Path 7188" d="M778.3,396.971l11.984,6.12,11.984-6.12-11.984-6.12Z" fill="#a4abb3"/>
      <path id="Path_7189" data-name="Path 7189" d="M747.858,383.629l-11.984,6.12,11.984,6.12,11.984-6.12Z" fill="#a4abb3"/>
      <path id="Path_7190" data-name="Path 7190" d="M762,390.851l-11.984,6.12L762,403.091l.156-.08L766.4,393.1Z" fill="#a4abb3"/>
      <path id="Path_7191" data-name="Path 7191" d="M773.983,396.971l-2.184-1.115-3.63,4.084Z" fill="#a4abb3"/>
      <path id="Path_7192" data-name="Path 7192" d="M764.582,403.977l-.264.3,11.825,6.039,11.984-6.12-11.984-6.12Z" fill="#a4abb3"/>
      <path id="Path_7193" data-name="Path 7193" d="M764.158,404.193l.159.081.264-.3Z" fill="#a4abb3"/>
    </g>
    <path id="flash_icon" data-name="flash icon" d="M767.465,396.971l12.851-29.987H762.593l35.777-38.013-13,28.164h17.5l-35.406,39.836Zm2.726-33.27h15.1l-6.84,15.97,17.113-19.253H780.24l6.7-14.511Z" fill="#007bc0"/>
  </g>
</svg>
