<svg id="Globe_icon" xmlns="http://www.w3.org/2000/svg" width="25.742" height="25.742" viewBox="0 0 25.742 25.742">
  <path id="globe-checkmark" d="M695.871,392.221a5.148,5.148,0,1,0-5.148,5.148h0A5.164,5.164,0,0,0,695.871,392.221Zm-1.287,0a3.861,3.861,0,1,1-3.861-3.861h0A3.872,3.872,0,0,1,694.584,392.221Zm-8.238,4.714a12.69,12.69,0,0,1-3.347.434A12.871,12.871,0,1,1,695.871,384.5a13.5,13.5,0,0,1-.434,3.347,6.148,6.148,0,0,0-1.094-.949,12.341,12.341,0,0,0,.225-1.754h-4.489c0,.225-.016.45-.032.676a6.963,6.963,0,0,0-1.3.274l.048-.965h-5.151v10.86a3.4,3.4,0,0,0,1.416-.724,6.3,6.3,0,0,0,1.287,1.673Zm.418-23.393c1.915,2.14,3.186,5.9,3.3,10.313h4.489a11.581,11.581,0,0,0-7.787-10.313Zm-3.12,10.313h5.132c-.161-5.567-2.4-10.217-5.132-10.86Zm-12.212,0h4.489c.113-4.408,1.4-8.157,3.3-10.313a11.631,11.631,0,0,0-7.792,10.313Zm7.8,11.6c-1.915-2.14-3.186-5.9-3.3-10.313h-4.5a11.622,11.622,0,0,0,7.806,10.313Zm3.121-10.313h-5.124c.161,5.567,2.4,10.217,5.132,10.86Zm0-12.147c-2.751.644-4.972,5.293-5.132,10.86h5.132Z" transform="translate(-670.129 -371.627)"/>
  <path id="Path_7092" data-name="Path 7092" d="M693.589,393.283h-3.764v-3.645h1v2.645h2.764Z" transform="translate(-670.129 -371.627)"/>
</svg>
