<svg xmlns="http://www.w3.org/2000/svg" xmlns:xlink="http://www.w3.org/1999/xlink" width="81" height="60" viewBox="0 0 81 60">
  <defs>
    <clipPath id="clip-Custom_Size_1">
      <rect width="81" height="60"/>
    </clipPath>
  </defs>
  <g id="Custom_Size_1" data-name="Custom Size – 1" clip-path="url(#clip-Custom_Size_1)">
    <rect width="81" height="60" fill="#fff"/>
    <g id="Group_1" data-name="Group 1" transform="translate(12.138 10)">
      <path id="Appliances_icon" d="M70.813,24.7H66.5V21.8h4.313Zm-5.75-2.9H60.75v2.9h4.313Zm-5.75,0H55v2.9h4.313Zm-8.625,0h-11.5v2.9h11.5ZM78,21.776V68.224A5.758,5.758,0,0,1,72.274,74H37.726A5.758,5.758,0,0,1,32,68.224V21.776A5.758,5.758,0,0,1,37.726,16H72.274A5.758,5.758,0,0,1,78,21.776ZM75.125,30.5H34.875V68.224A2.867,2.867,0,0,0,37.726,71.1H72.274a2.867,2.867,0,0,0,2.851-2.876V30.5Zm0-8.724A2.867,2.867,0,0,0,72.274,18.9H37.726a2.867,2.867,0,0,0-2.851,2.876V27.6h40.25ZM69.555,50.8A14.555,14.555,0,1,1,55,36.119,14.635,14.635,0,0,1,69.555,50.8ZM43.9,48.545a6.646,6.646,0,0,0,1.933-1.415,1.43,1.43,0,0,1,2.336,0c1.018,1.432,2.056,2.22,2.92,2.22s1.9-.788,2.92-2.22a1.43,1.43,0,0,1,2.336,0c1.018,1.432,2.056,2.22,2.92,2.22s1.9-.788,2.92-2.22a1.43,1.43,0,0,1,2.336,0,6.028,6.028,0,0,0,1.545,1.28,11.3,11.3,0,0,0-22.166.136ZM66.274,51.8a13.119,13.119,0,0,1-2.8-1.692,5.879,5.879,0,0,1-4.209,2.142,5.787,5.787,0,0,1-4.088-2.016,5.787,5.787,0,0,1-4.088,2.016,5.9,5.9,0,0,1-4.233-2.168,14.267,14.267,0,0,1-3.131,1.748,11.31,11.31,0,0,0,22.546-.03Z" transform="translate(-42.863 -25)"/>
      <path id="fridge" d="M72.562,16H52.888C50.193,16,48,18.591,48,21.776V65.32C48,68.5,50.193,71.1,52.888,71.1h.02V74h2.454V71.1H70.088V74h2.454V71.1h.02c2.7,0,4.888-2.591,4.888-5.776V21.776C77.45,18.591,75.257,16,72.562,16ZM52.888,18.9H72.562A2.686,2.686,0,0,1,75,21.776v7.273H50.454V21.776A2.686,2.686,0,0,1,52.888,18.9ZM72.562,68.2H52.888a2.686,2.686,0,0,1-2.434-2.876V31.949H75V65.32A2.686,2.686,0,0,1,72.562,68.2Zm-17.2-42.047H52.908V21.8h2.454Zm-2.454,8.7h2.454V45H52.908Z" transform="translate(-9.863 -24.995)"/>
    </g>
  </g>
</svg>
