<svg xmlns="http://www.w3.org/2000/svg" width="20.881" height="22.006" viewBox="0 0 20.881 22.006">
  <path id="Insights_dashboard_icon" d="M24.741,31.267l.774.782L23.55,34l-.774-.782,1.965-1.947ZM38.286,19.4l-.774-.782L35.529,20.58l.774.782Zm-2.74,12.652L37.512,34l.774-.782-1.965-1.947-.774.782ZM25.532,20.579,23.55,18.615l-.774.782,1.983,1.964Zm1.7,15.226h6.6v-1.1h-6.6Zm.55,2.2h5.5v-1.1h-5.5Zm7.414-16.27a6.71,6.71,0,0,0-9.327,0,6.352,6.352,0,0,0,0,9.137c.192.187.377.341.556.49l.188.158.121.1c.186.149.5.4.5.611v1.375h1.1V32.23a1.975,1.975,0,0,0-.91-1.469l-.1-.079-.2-.165c-.17-.141-.33-.275-.491-.431a5.252,5.252,0,0,1,0-7.561,5.61,5.61,0,0,1,7.79,0,5.252,5.252,0,0,1,0,7.561c-.161.157-.321.29-.491.431l-.2.165-.1.079a1.975,1.975,0,0,0-.91,1.469v1.375h1.1V32.23c0-.211.312-.461.5-.611.045-.036.085-.069.12-.1l.188-.157c.179-.149.364-.3.556-.49a6.352,6.352,0,0,0,0-9.137ZM38.233,25.9V27h2.738V25.9Zm-15.4,0H20.09V27h2.738ZM31.081,16h-1.1v2.751h1.1Z" transform="translate(-20.09 -16)"/>
</svg>
