<svg xmlns="http://www.w3.org/2000/svg" width="21.064" height="22.328" viewBox="0 0 21.064 22.328"><defs><style>.a{fill:#efce4a;}.b{fill:#f7e6a1;}.c{fill:#bfc0c2;}</style></defs><g transform="translate(-1.5)"><path class="a" d="M17.24,9a6.739,6.739,0,0,0-2.106,13.141v4.132h.843v1.264H18.5V26.272h.843V22.141A6.739,6.739,0,0,0,17.24,9Z" transform="translate(-5.208 -5.208)"/><g transform="translate(1.5)"><path class="a" d="M25.921,0A.421.421,0,0,0,25.5.421V2.106a.421.421,0,1,0,.843,0V.421A.421.421,0,0,0,25.921,0Z" transform="translate(-15.389)"/><path class="a" d="M47.606,24H45.921a.421.421,0,0,0,0,.843h1.685a.421.421,0,0,0,0-.843Z" transform="translate(-26.964 -13.889)"/><path class="a" d="M3.606,24H1.921a.421.421,0,1,0,0,.843H3.606a.421.421,0,1,0,0-.843Z" transform="translate(-1.5 -13.889)"/><path class="a" d="M40.958,7.153,39.766,8.344a.421.421,0,1,0,.6.6l1.191-1.191a.421.421,0,1,0-.6-.6Z" transform="translate(-23.574 -4.068)"/><path class="a" d="M9.844,38.266,8.652,39.458a.421.421,0,1,0,.6.6l1.191-1.191a.421.421,0,1,0-.6-.6Z" transform="translate(-5.568 -22.074)"/><path class="a" d="M40.362,38.266a.421.421,0,0,0-.6.6l1.191,1.191a.421.421,0,1,0,.6-.6Z" transform="translate(-23.574 -22.074)"/><path class="a" d="M9.248,7.152a.421.421,0,0,0-.6.6L9.844,8.939a.421.421,0,0,0,.6-.6Z" transform="translate(-5.568 -4.068)"/></g><path class="b" d="M14.921,18.477a.421.421,0,0,1-.421-.421A5.061,5.061,0,0,1,19.555,13a.421.421,0,1,1,0,.843,4.218,4.218,0,0,0-4.213,4.213A.421.421,0,0,1,14.921,18.477Z" transform="translate(-7.523 -7.523)"/><path class="c" d="M21.5,43v2.949h.843v1.264H24.87V45.949h.843V43Z" transform="translate(-11.574 -24.885)"/></g></svg>