<svg xmlns="http://www.w3.org/2000/svg" width="35.187" height="23.917" viewBox="0 0 35.187 23.917">
  <g id="Insights_icon_black" transform="translate(-70.003 -89.679)">
    <path id="Path_7034" data-name="Path 7034" d="M183.7,114.474h.029a.7.7,0,0,0,.674-.732,6.173,6.173,0,0,1,12.248-1.325.7.7,0,1,0,1.386-.243,7.581,7.581,0,0,0-15.041,1.626.7.7,0,0,0,.7.674Z" transform="translate(-105.885 -15.21)"/>
    <path id="Path_7035" data-name="Path 7035" d="M217.209,259.062a1.27,1.27,0,0,0-1.752,0l-.26.26-.293-.292a7.488,7.488,0,0,0,1.2-2.013.7.7,0,1,0-1.307-.524,6.176,6.176,0,0,1-10.095,2.064,6.223,6.223,0,0,1-.7-.828.7.7,0,1,0-1.153.808,7.714,7.714,0,0,0,.853,1.016,7.585,7.585,0,0,0,10.2.473l.293.293-.26.26a1.239,1.239,0,0,0,0,1.753l6.82,6.82a1.239,1.239,0,0,0,1.753,0l1.516-1.516a1.241,1.241,0,0,0,0-1.753Zm4.429,8.975-6.583-6.583,1.278-1.278,6.583,6.583Z" transform="translate(-124.387 -155.918)"/>
    <path id="Path_7036" data-name="Path 7036" d="M102.5,89.679a2.689,2.689,0,0,0-2.066,4.412l-2.252,3.157a2.681,2.681,0,0,0-3.426,1.719l-6.7-1.284a3.42,3.42,0,0,0-6.788.592c0,.09.007.178.013.266l-6.536,2.88a2.725,2.725,0,1,0,.6,1.272L81.674,99.9a3.418,3.418,0,0,0,6.324-.8l6.693,1.282a2.689,2.689,0,1,0,4.656-2.352l2.239-3.138a2.69,2.69,0,1,0,.914-5.219ZM72.694,104.447a1.283,1.283,0,1,1,1.283-1.283A1.285,1.285,0,0,1,72.694,104.447Zm11.99-4.158A2.014,2.014,0,1,1,86.7,98.275,2.016,2.016,0,0,1,84.684,100.289Zm12.631.787A1.283,1.283,0,1,1,98.6,99.792,1.284,1.284,0,0,1,97.315,101.076Zm5.186-7.423a1.283,1.283,0,1,1,1.283-1.284A1.285,1.285,0,0,1,102.5,93.653Z"/>
  </g>
</svg>
