<svg xmlns="http://www.w3.org/2000/svg" width="24.879" height="20.161" viewBox="0 0 24.879 20.161">
  <path id="language_icon" d="M25.952,36.354V46.927H33.78l5.233,5.233V46.927h1.866V36.354Zm13.683,9.33H37.769v3.474l-3.474-3.474H27.2V37.6H39.635ZM22.584,41.952h2.124V43.2H23.1l-5.233,5.233V43.2H16V32H31.549v3.11H30.305V33.244H17.244v8.708H19.11v3.474Zm9.82,1.061h1.816l.26.8h1.39l-1.683-4.757H32.644l-1.716,4.757h1.211Zm.918-2.781.605,1.856H32.7l.619-1.856ZM21.988,36.857h1.835l-.017.056a5.74,5.74,0,0,1-.362,1,4.4,4.4,0,0,1-1.014,1.265,10.442,10.442,0,0,0,2.218.718l.06.013-.03.052q-.153.262-.18.321a1.883,1.883,0,0,0-.073.223l-.053.177-.04-.013q-.925-.278-1.42-.47t-1.2-.549a13.284,13.284,0,0,1-1.376.6q-.622.226-1.533.455l-.01-.046q-.05-.23-.066-.275a1.208,1.208,0,0,0-.09-.167q-.066-.111-.156-.269l.06-.013a10.006,10.006,0,0,0,2.441-.75,3.919,3.919,0,0,1-1.1-1.576h-.692v-.75h1.978v-.6H18.629v-.793h2.537v-.983h.821v.983H24.6v.793h-2.61v.593Zm-1.3.754a2.737,2.737,0,0,0,1.024,1.176,2.987,2.987,0,0,0,.594-.524,3.063,3.063,0,0,0,.451-.652H20.684Z" transform="translate(-16 -32)"/>
</svg>
