<svg xmlns="http://www.w3.org/2000/svg" width="23.407" height="35.983" viewBox="0 0 23.407 35.983">
  <path id="Latitude_Longitude_icon" d="M55.7,33.1a5.4,5.4,0,1,1,5.4-5.4A5.408,5.408,0,0,1,55.7,33.1Zm0-9a3.6,3.6,0,1,0,3.6,3.6A3.605,3.605,0,0,0,55.7,24.1Zm0,27.881-.776-1.316c-.074-.126-7.425-12.6-9-15.3A14.915,14.915,0,0,1,44,27.7a11.7,11.7,0,1,1,23.407,0,14.916,14.916,0,0,1-1.93,7.667c-1.573,2.7-8.924,15.171-9,15.3Zm0-34.183a9.914,9.914,0,0,0-9.9,9.9,13.265,13.265,0,0,0,1.664,6.725l.014.024c1.254,2.149,6.278,10.68,8.225,13.984,1.947-3.3,6.971-11.835,8.225-13.985l.014-.023A13.266,13.266,0,0,0,65.606,27.7,9.914,9.914,0,0,0,55.7,17.8Z" transform="translate(-44 -16)" fill="#007bc0"/>
</svg>
