<svg xmlns="http://www.w3.org/2000/svg" xmlns:xlink="http://www.w3.org/1999/xlink" width="54.238" height="55.367" viewBox="0 0 54.238 55.367">
  <defs>
    <clipPath id="clip-path">
      <path id="Path_437" data-name="Path 437" d="M70.185,155.795l-17.24,31.142,6.576-3.311-5.305,19.759,21.067-28.4L66.3,179.205l3.886-23.41Z" transform="translate(-52.945 -155.795)" fill="#fff" clip-rule="evenodd"/>
    </clipPath>
  </defs>
  <g id="Layer_x0020_1" transform="translate(-54.137 -184.555)">
    <g id="_309312896" transform="translate(54.137 184.555)">
      <path id="_309315104" d="M79.479,175.689l2.132-2.768c6.361-3.328,9.41-7.245,4.393-13.471l1.676-.866c5.823,7.227,2.209,11.8-5.053,15.6-.992.519-2.048,1.02-3.149,1.507ZM53.774,186.462c-4.784,3.2-6.59,7.179-1.588,12.934l-1.529.86c-6.386-7.347-3.1-12.194,4.3-16.615Z" transform="translate(-41.529 -151.982)" fill="#fff"/>
      <path id="_309315056" d="M66.909,154.228a26.728,26.728,0,1,1-18.931,7.815A26.733,26.733,0,0,1,66.909,154.228Zm17.818,8.924a25.056,25.056,0,1,0,7.38,17.759A25.162,25.162,0,0,0,84.727,163.152Z" transform="translate(-40.137 -154.228)" fill="#fff"/>
      <circle id="_309314696" cx="3.707" cy="3.707" r="3.707" transform="translate(19.815 47.953)" fill="#fff"/>
      <path id="_309314288" d="M81.709,174.3l1.078-1.752a17.669,17.669,0,0,1,.539,8.137,18.382,18.382,0,0,1-4.632,9.334,19.466,19.466,0,0,1-17.454,6.05l1.488-1.264a17.935,17.935,0,0,0,14.853-5.737,16.964,16.964,0,0,0,4.276-8.613,16.172,16.172,0,0,0-.148-6.154ZM47.116,186.126a14.5,14.5,0,0,1-1.949-8.272,18.283,18.283,0,0,1,2.625-9.374,18.92,18.92,0,0,1,7.134-6.87,17.583,17.583,0,0,1,8.939-2.366l-1.675,1.487c-2.97.16-4.018.753-6.529,2.129a17.459,17.459,0,0,0-6.58,6.34,16.877,16.877,0,0,0-2.421,8.653c0,2.8-.1,4.292,1.2,6.376Z" transform="translate(-37.544 -151.642)" fill="#fff"/>
      <path id="_309314480" d="M70.185,155.795l-17.24,31.142,6.576-3.311-5.305,19.759,21.067-28.4L66.3,179.206Z" transform="translate(-37.634 -153.42)" fill="#fff" fill-rule="evenodd"/>
      <g id="Group_272" data-name="Group 272" transform="translate(15.311 2.375)" clip-path="url(#clip-path)">
        <g id="Group_271" data-name="Group 271" transform="translate(2.12 2.218)">
          <path id="_3093115761" d="M59.186,182.889v-.583h.593v-2.472h-.632v-.583h1.579v3.055h.563v.583Z" transform="translate(-51.867 -151.426)" fill="#fff"/>
          <path id="_309311408" d="M56.9,182.889v-.583h.593v-2.472h-.632v-.583h1.579v3.055H59v.583Z" transform="translate(-53.047 -151.426)" fill="#fff"/>
          <path id="_309310592" d="M59.167,186.492v-.583h.594v-2.472h-.631v-.583h1.579v3.055h.563v.583Z" transform="translate(-51.877 -150.414)" fill="#fff"/>
          <path id="_309310880" d="M57,186.492v-.583h.594v-2.472h-.632v-.583h1.579v3.055H59.1v.583Z" transform="translate(-52.996 -150.414)" fill="#fff"/>
          <path id="_309310496" d="M55.179,186.492v-.583h.593v-2.472H55.14v-.583h1.579v3.055h.563v.583Z" transform="translate(-53.933 -150.414)" fill="#fff"/>
          <path id="_309310712" d="M54.566,189.83v-.583h.594v-2.472h-.632v-.583h1.579v3.055h.563v.583Z" transform="translate(-54.249 -149.477)" fill="#fff"/>
          <path id="_309310232" d="M59.261,179.306v-.583h.593v-2.472h-.631v-.582H60.8v3.054h.563v.583Z" transform="translate(-51.828 -152.432)" fill="#fff"/>
          <path id="_309310544" d="M56.972,179.306v-.583h.594v-2.472h-.632v-.582h1.579v3.054h.563v.583Z" transform="translate(-53.008 -152.432)" fill="#fff"/>
          <path id="_309310376" d="M61.465,175.641v-.583h.593v-2.471h-.632v-.583h1.579v3.054h.563v.583Z" transform="translate(-50.692 -153.461)" fill="#fff"/>
          <path id="_309309656" d="M56.805,175.641v-.583H57.4v-2.471h-.632v-.583h1.579v3.054h.563v.583Z" transform="translate(-53.094 -153.461)" fill="#fff"/>
          <path id="_309310016" d="M59.2,172.073v-.583h.594V169.02h-.631v-.583h1.579v3.054H61.3v.583Z" transform="translate(-51.859 -154.463)" fill="#fff"/>
          <path id="_309309464" d="M61.552,165.012v-.583h.593v-2.472h-.632v-.583h1.579v3.055h.563v.583Z" transform="translate(-50.647 -156.447)" fill="#fff"/>
          <path id="_309310040" d="M59.847,172.041H61.1a.84.84,0,0,1,.541.19h0a.6.6,0,0,1,.225.457v2.246a.6.6,0,0,1-.225.457h0a.84.84,0,0,1-.541.19H59.847a.84.84,0,0,1-.541-.19h0a.6.6,0,0,1-.225-.457V172.69a.6.6,0,0,1,.225-.457h0A.84.84,0,0,1,59.847,172.041Zm1.181.707H59.916v2.13h1.112Z" transform="translate(-51.902 -153.451)" fill="#fff"/>
          <path id="_309308696" d="M62.1,175.706h1.249a.841.841,0,0,1,.541.19h0a.6.6,0,0,1,.225.457V178.6a.6.6,0,0,1-.225.457h0a.842.842,0,0,1-.541.19H62.1a.841.841,0,0,1-.541-.19h0a.6.6,0,0,1-.225-.457v-2.246a.6.6,0,0,1,.225-.457h0A.841.841,0,0,1,62.1,175.706Zm1.181.707H62.173v2.13h1.112Z" transform="translate(-50.738 -152.422)" fill="#fff"/>
          <path id="_309309056" d="M64.5,172.041h1.249a.84.84,0,0,1,.541.19h0a.6.6,0,0,1,.225.457v2.246a.6.6,0,0,1-.225.457h0a.84.84,0,0,1-.541.19H64.5a.84.84,0,0,1-.541-.19h0a.6.6,0,0,1-.225-.457V172.69a.6.6,0,0,1,.225-.457h0A.84.84,0,0,1,64.5,172.041Zm1.181.707H64.572v2.13h1.112Z" transform="translate(-49.501 -153.451)" fill="#fff"/>
          <path id="_309308024" d="M64.409,175.706h1.249a.841.841,0,0,1,.541.19h0a.6.6,0,0,1,.225.457V178.6a.6.6,0,0,1-.225.457h0a.842.842,0,0,1-.541.19H64.409a.841.841,0,0,1-.541-.19h0a.6.6,0,0,1-.225-.457v-2.246a.6.6,0,0,1,.225-.457h0A.841.841,0,0,1,64.409,175.706Zm1.181.707H64.478v2.13H65.59Z" transform="translate(-49.55 -152.422)" fill="#fff"/>
          <path id="_309307136" d="M55.112,175.706h1.249a.841.841,0,0,1,.541.19h0a.6.6,0,0,1,.225.457V178.6a.6.6,0,0,1-.225.457h0a.842.842,0,0,1-.541.19H55.112a.841.841,0,0,1-.541-.19h0a.6.6,0,0,1-.225-.457v-2.246a.6.6,0,0,1,.225-.457h0A.841.841,0,0,1,55.112,175.706Zm1.181.707H55.18v2.13h1.112Z" transform="translate(-54.344 -152.422)" fill="#fff"/>
          <path id="_309307112" d="M57.338,186.229h1.249a.84.84,0,0,1,.541.19h0a.6.6,0,0,1,.225.457v2.246a.6.6,0,0,1-.225.457h0a.841.841,0,0,1-.541.19H57.338a.84.84,0,0,1-.541-.19h0a.6.6,0,0,1-.225-.457v-2.246a.6.6,0,0,1,.225-.457h0A.84.84,0,0,1,57.338,186.229Zm1.181.707H57.407v2.13h1.112Z" transform="translate(-53.196 -149.466)" fill="#fff"/>
          <path id="_309307472" d="M62.342,178.975h1.249a.841.841,0,0,1,.541.19h0a.6.6,0,0,1,.225.457v2.246a.6.6,0,0,1-.225.457h0a.841.841,0,0,1-.541.19H62.342a.841.841,0,0,1-.541-.19h0a.6.6,0,0,1-.225-.457v-2.246a.6.6,0,0,1,.225-.457h0A.841.841,0,0,1,62.342,178.975Zm1.181.707H62.41v2.13h1.112Z" transform="translate(-50.616 -151.504)" fill="#fff"/>
          <path id="_309307808" d="M57.1,172.073v-.583h.594V169.02h-.632v-.583H58.64v3.054H59.2v.583Z" transform="translate(-52.943 -154.463)" fill="#fff"/>
          <path id="_309307280" d="M62.073,168.473h1.249a.842.842,0,0,1,.541.19h0a.6.6,0,0,1,.225.457v2.246a.6.6,0,0,1-.225.457h0a.841.841,0,0,1-.541.19H62.073a.841.841,0,0,1-.541-.19h0a.6.6,0,0,1-.225-.457v-2.246a.6.6,0,0,1,.225-.457h0A.841.841,0,0,1,62.073,168.473Zm1.181.707H62.142v2.13h1.112Z" transform="translate(-50.754 -154.453)" fill="#fff"/>
          <path id="_309307712" d="M62.065,164.78h1.249a.841.841,0,0,1,.541.19h0a.6.6,0,0,1,.225.457v2.246a.6.6,0,0,1-.225.457h0a.841.841,0,0,1-.541.19H62.065a.841.841,0,0,1-.541-.19h0a.6.6,0,0,1-.225-.457v-2.246a.6.6,0,0,1,.225-.457h0A.841.841,0,0,1,62.065,164.78Zm1.181.707H62.133v2.13h1.112Z" transform="translate(-50.759 -155.49)" fill="#fff"/>
          <path id="_309306872" d="M59.775,164.78h1.249a.841.841,0,0,1,.541.19h0a.6.6,0,0,1,.225.457v2.246a.6.6,0,0,1-.225.457h0a.841.841,0,0,1-.541.19H59.775a.84.84,0,0,1-.541-.19h0a.6.6,0,0,1-.225-.457v-2.246a.6.6,0,0,1,.225-.457h0A.84.84,0,0,1,59.775,164.78Zm1.181.707H59.844v2.13h1.112Z" transform="translate(-51.939 -155.49)" fill="#fff"/>
          <path id="_309306728" d="M61.443,161.163v-.583h.594V158.11H61.4v-.583h1.579v3.053h.563v.583Z" transform="translate(-50.703 -157.527)" fill="#fff"/>
        </g>
      </g>
      <path id="Path_438" data-name="Path 438" d="M70.185,155.795l-17.24,31.142,6.576-3.311-5.305,19.759,21.067-28.4L66.3,179.206Z" transform="translate(-37.634 -153.42)" fill="none" fill-rule="evenodd"/>
      <circle id="_309314432" cx="3.707" cy="3.707" r="3.707" transform="translate(3.469 8.027)" fill="#fff"/>
      <circle id="_309313448" cx="3.707" cy="3.707" r="3.707" transform="translate(46.824 13.771)" fill="#fff"/>
    </g>
  </g>
</svg>
