<svg xmlns="http://www.w3.org/2000/svg" width="17.296" height="18.23" viewBox="0 0 17.296 18.23">
  <path id="lightbulb" d="M22.32,30.26l1.627-1.612.641.648-1.627,1.612ZM32.888,19.8l1.643-1.628.641.648-1.643,1.628Zm.016,9.5.641-.648,1.627,1.612-.641.647ZM22.324,18.821l.641-.647L24.609,19.8l-.641.647ZM26.013,31.5h5.469v.911H26.013Zm.456,1.823h4.557v.911H26.469ZM32.61,20.751a5.559,5.559,0,0,0-7.725,0,5.257,5.257,0,0,0,0,7.565c.16.16.308.285.456.41a.86.86,0,0,0,.16.125c.034.023.068.057.1.08.16.125.41.33.41.5v1.139h.911V29.433a1.647,1.647,0,0,0-.752-1.219.5.5,0,0,1-.08-.068,1.985,1.985,0,0,1-.16-.137c-.137-.114-.273-.228-.41-.353a4.264,4.264,0,0,1-1.333-3.122A4.327,4.327,0,0,1,25.523,21.4a4.652,4.652,0,0,1,6.449,0,4.349,4.349,0,0,1,0,6.267c-.137.125-.262.239-.41.353-.057.046-.1.091-.16.137a.5.5,0,0,1-.08.068,1.647,1.647,0,0,0-.752,1.219v1.139h.911V29.445c0-.171.262-.387.41-.5a.626.626,0,0,1,.1-.08,1.532,1.532,0,0,1,.16-.125c.148-.125.3-.251.456-.41a5.27,5.27,0,0,0,0-7.577ZM35.128,24.2H37.4v.911H35.128ZM20.1,24.2h2.267v.911H20.1ZM28.292,16H29.2v2.279h-.911Z" transform="translate(-20.1 -16)" fill="#f2e30b"/>
</svg>
