<svg xmlns="http://www.w3.org/2000/svg" width="11.619" height="15.976" viewBox="0 0 11.619 15.976">
  <path id="lightbulb-off" d="M50.9,57.072h5.81v.968H50.9Zm.484,1.937H56.23v.968H51.389Zm6.524-13.35a5.905,5.905,0,0,0-8.206,0,5.584,5.584,0,0,0,0,8.037c.169.169.327.3.484.436a.914.914,0,0,0,.169.133c.036.024.073.061.109.085.169.133.436.351.436.533v1.21h.968v-1.21a1.749,1.749,0,0,0-.8-1.3.526.526,0,0,1-.085-.073,2.105,2.105,0,0,1-.169-.145c-.145-.121-.29-.242-.436-.375a4.53,4.53,0,0,1-1.416-3.316,4.6,4.6,0,0,1,1.416-3.328,4.941,4.941,0,0,1,6.851,0,4.62,4.62,0,0,1,0,6.657c-.145.133-.278.254-.436.375-.061.048-.109.1-.169.145a.526.526,0,0,1-.085.073,1.749,1.749,0,0,0-.8,1.3V56.1h.968v-1.21c0-.182.278-.412.436-.533a.665.665,0,0,1,.109-.085,1.627,1.627,0,0,1,.169-.133c.157-.133.315-.266.484-.436a5.6,5.6,0,0,0,0-8.049Z" transform="translate(-48 -44)" fill="#bfc0c2"/>
</svg>
