<svg xmlns="http://www.w3.org/2000/svg" width="14.594" height="22.435" viewBox="0 0 14.594 22.435">
  <path id="locator_icon1" d="M51.3,26.665A3.368,3.368,0,1,1,54.665,23.3,3.372,3.372,0,0,1,51.3,26.665Zm0-5.613A2.245,2.245,0,1,0,53.542,23.3,2.248,2.248,0,0,0,51.3,21.052Zm0,17.383-.484-.821c-.046-.079-4.629-7.856-5.61-9.537A9.3,9.3,0,0,1,44,23.3a7.3,7.3,0,0,1,14.594,0,9.3,9.3,0,0,1-1.2,4.78c-.981,1.681-5.564,9.459-5.61,9.537Zm0-21.312A6.181,6.181,0,0,0,45.123,23.3,8.271,8.271,0,0,0,46.16,27.49l.009.015c.782,1.34,3.914,6.659,5.128,8.719,1.214-2.06,4.347-7.379,5.128-8.719l.009-.015A8.272,8.272,0,0,0,57.471,23.3,6.181,6.181,0,0,0,51.3,17.123Z" transform="translate(-44 -16)" fill="#007bc0"/>
</svg>
