<svg xmlns="http://www.w3.org/2000/svg" width="58.16" height="50.938" viewBox="0 0 58.16 50.938">
  <g id="Max_Peak_Energy_Consumption_icon" transform="translate(-333 -900.844)">
    <g id="Group_5834" data-name="Group 5834" transform="translate(4.292 10)">
      <path id="speedometer-speed-high" d="M74.16,81.08v1.454H65.436v-.727A21.1,21.1,0,0,0,45.08,60.742V57.833A24.019,24.019,0,0,1,68.24,79.626h2.972a26.172,26.172,0,0,0-52.264,0h5.776v2.908H16V81.08a29.08,29.08,0,0,1,58.16,0ZM60.268,74.606l.884,2.77L49.441,81.113a4.319,4.319,0,0,1-.485,1.953,4.372,4.372,0,0,1-5.874,1.869A4.345,4.345,0,0,1,41.2,79.071a4.364,4.364,0,0,1,7.289-.708l11.775-3.757Zm-13.8,6.027a1.435,1.435,0,0,0-.718-.845,1.46,1.46,0,0,0-1.962.621,1.437,1.437,0,0,0,.624,1.94,1.461,1.461,0,0,0,1.962-.621,1.423,1.423,0,0,0,.093-1.095Z" transform="translate(312.708 856.363)" fill="#007bc0"/>
      <path id="flash_icon" d="M52.258,32.519l4-9.33H50.742L61.873,11.363l-4.045,8.763h5.446L52.258,32.519Zm.848-10.351h4.7l-2.129,4.969L61,21.147H56.232l2.083-4.515Z" transform="translate(322.258 879.481)" fill="#007bc0"/>
    </g>
  </g>
</svg>
