<svg xmlns="http://www.w3.org/2000/svg" width="22.116" height="21.379" viewBox="0 0 22.116 21.379">
  <g id="money" transform="translate(0 -7.982)">
    <g id="Group_1673" data-name="Group 1673" transform="translate(0 15.004)">
      <g id="Group_1672" data-name="Group 1672" transform="translate(0 0)">
        <path id="Path_2256" data-name="Path 2256" d="M18.792,160.017H.317a.316.316,0,0,0-.317.316H0V169.2a.316.316,0,0,0,.316.317H12.879a.317.317,0,0,0,0-.633H.633V160.65H18.474v.792a.316.316,0,0,0,.316.317h0a.316.316,0,0,0,.317-.316h0v-1.108A.316.316,0,0,0,18.792,160.017Z" transform="translate(0 -160.017)" fill="#fff"/>
      </g>
    </g>
    <g id="Group_1675" data-name="Group 1675" transform="translate(0.739 10.201)">
      <g id="Group_1674" data-name="Group 1674">
        <path id="Path_2257" data-name="Path 2257" d="M31.9,59.352,17.12,56.027a.317.317,0,0,0-.379.24L16,59.592a.317.317,0,1,0,.619.137l.67-3.015,14.47,3.256a.3.3,0,0,0,.07.008.317.317,0,0,0,.069-.626Z" transform="translate(-15.995 -56.019)" fill="#fff"/>
      </g>
    </g>
    <g id="Group_1677" data-name="Group 1677" transform="translate(4.798 7.982)">
      <g id="Group_1676" data-name="Group 1676">
        <path id="Path_2258" data-name="Path 2258" d="M113.926,11.7l-8.868-3.695a.318.318,0,0,0-.406.151l-.739,1.478a.318.318,0,1,0,.559.3l.009-.019h0l.606-1.213,8.594,3.581a.317.317,0,1,0,.245-.586Z" transform="translate(-103.875 -7.982)" fill="#fff"/>
      </g>
    </g>
    <g id="Group_1679" data-name="Group 1679" transform="translate(11.824 16.482)">
      <g id="Group_1678" data-name="Group 1678">
        <path id="Path_2259" data-name="Path 2259" d="M259.249,192.017h-2.933a.317.317,0,1,0,0,.633h2.933a.317.317,0,0,0,0-.633Z" transform="translate(-256 -192.017)" fill="#fff"/>
      </g>
    </g>
    <g id="Group_1681" data-name="Group 1681" transform="translate(5.933 16.503)">
      <g id="Group_1680" data-name="Group 1680">
        <path id="Path_2260" data-name="Path 2260" d="M131.707,192.473a3.251,3.251,0,1,0,3.251,3.251A3.252,3.252,0,0,0,131.707,192.473Zm0,5.912a2.66,2.66,0,1,1,2.66-2.66A2.66,2.66,0,0,1,131.707,198.385Z" transform="translate(-128.456 -192.473)" fill="#fff"/>
      </g>
    </g>
    <g id="Group_1683" data-name="Group 1683" transform="translate(13.988 17.537)">
      <g id="Group_1682" data-name="Group 1682">
        <path id="Path_2261" data-name="Path 2261" d="M306.92,214.873c-1.958,0-4.064.463-4.064,1.478v8.868c0,1.015,2.106,1.478,4.064,1.478s4.064-.463,4.064-1.478v-8.868C310.985,215.336,308.879,214.873,306.92,214.873Zm3.325,10.34c-.056.205-1.164.745-3.325.745s-3.27-.539-3.325-.739v-.581a9.807,9.807,0,0,0,6.651,0Zm0-1.478c-.056.205-1.164.745-3.325.745s-3.27-.539-3.325-.739v-.581a9.807,9.807,0,0,0,6.651,0Zm0-1.478c-.056.205-1.164.745-3.325.745s-3.27-.539-3.325-.739v-.581a9.807,9.807,0,0,0,6.651,0Zm0-1.478c-.056.205-1.164.745-3.325.745s-3.27-.539-3.325-.739V220.2a9.807,9.807,0,0,0,6.651,0Zm0-1.478c-.056.205-1.164.745-3.325.745s-3.27-.539-3.325-.739v-.581a9.807,9.807,0,0,0,6.651,0Zm0-1.478c-.056.205-1.164.745-3.325.745s-3.27-.539-3.325-.739v-.581a9.807,9.807,0,0,0,6.651,0Zm-3.325-.733c-2.158,0-3.266-.538-3.325-.732v0c.06-.206,1.167-.743,3.325-.743,2.143,0,3.251.53,3.325.739C310.172,216.56,309.063,217.09,306.92,217.09Z" transform="translate(-302.856 -214.873)" fill="#fff"/>
      </g>
    </g>
    <g id="Group_1685" data-name="Group 1685" transform="translate(1.478 16.482)">
      <g id="Group_1684" data-name="Group 1684">
        <path id="Path_2262" data-name="Path 2262" d="M36.743,197.928H33.95l-1.324-1.448v-2.4l1.462-1.428h2.655a.317.317,0,1,0,0-.633H33.96a.317.317,0,0,0-.222.09l-1.65,1.61a.4.4,0,0,0-.1.259V196.6a.317.317,0,0,0,.083.214l1.5,1.642a.317.317,0,0,0,.234.1h2.933a.317.317,0,1,0,0-.633Z" transform="translate(-31.992 -192.017)" fill="#fff"/>
      </g>
    </g>
    <g id="Group_1687" data-name="Group 1687" transform="translate(8.076 18.092)">
      <g id="Group_1686" data-name="Group 1686">
        <path id="Path_2263" data-name="Path 2263" d="M176.149,228.166h-.369c-.115,0-.185-.064-.185-.092s.07-.092.185-.092h.924a.369.369,0,0,0,0-.739h-.37a.369.369,0,0,0-.739,0v.017a.86.86,0,0,0-.739.813.882.882,0,0,0,.924.833h.369c.115,0,.185.064.185.092s-.07.092-.185.092h-.924a.369.369,0,0,0,0,.739h.37a.369.369,0,1,0,.739,0v-.017a.86.86,0,0,0,.739-.813A.882.882,0,0,0,176.149,228.166Z" transform="translate(-174.856 -226.873)" fill="#fff"/>
      </g>
    </g>
  </g>
</svg>
