<svg xmlns="http://www.w3.org/2000/svg" width="40" height="38.878" viewBox="0 0 40 38.878">
  <path id="non_renewable_energy_icon" d="M46.8,27.582a7.084,7.084,0,0,1-.8-2.943,5.013,5.013,0,0,1,2.521-4.151l.958,1.756A2.982,2.982,0,0,0,48,24.639a5.4,5.4,0,0,0,.627,2.137,7.913,7.913,0,0,1,.873,3.318,5.407,5.407,0,0,1-.151,1.273H47.258a3.365,3.365,0,0,0,.242-1.272,6.135,6.135,0,0,0-.7-2.512ZM56,56.366H37v3H16V54.941l.306-.295c.013-.013,1.854-1.89,2.711-6.465A97.192,97.192,0,0,0,20,37.33l.035-.964h12.93L33,37.33a97.289,97.289,0,0,0,.983,10.852,18.311,18.311,0,0,0,1.079,3.7l.243-.235c.013-.013,1.854-1.891,2.711-6.465A97.192,97.192,0,0,0,39,34.33l.035-.964h12.93L52,34.33a97.288,97.288,0,0,0,.984,10.851c.857,4.574,2.7,6.452,2.717,6.47l.294.293.006.421Zm-21,0v-.62a15.877,15.877,0,0,1-2.983-7.2,88.64,88.64,0,0,1-.976-10.184H21.959a88.64,88.64,0,0,1-.976,10.184A15.877,15.877,0,0,1,18,55.746v1.62H35Zm19-3.62a15.877,15.877,0,0,1-2.983-7.2,88.639,88.639,0,0,1-.975-10.184H40.958a88.639,88.639,0,0,1-.975,10.184A15.877,15.877,0,0,1,37,52.746v1.62H54ZM29,33.093a2.467,2.467,0,0,1-.357,1.273h2.168A4.381,4.381,0,0,0,31,33.094a6.6,6.6,0,0,0-1.188-3.421A4.346,4.346,0,0,1,29,27.639a2.983,2.983,0,0,1,1.479-2.4l-.958-1.756A5.014,5.014,0,0,0,27,27.639a6.017,6.017,0,0,0,1.088,3.046A4.9,4.9,0,0,1,29,33.093Zm-5,0a2.469,2.469,0,0,1-.357,1.273h2.168A4.384,4.384,0,0,0,26,33.093a6.6,6.6,0,0,0-1.188-3.421A4.346,4.346,0,0,1,24,27.639a2.983,2.983,0,0,1,1.479-2.4l-.958-1.756A5.014,5.014,0,0,0,22,27.639a6.017,6.017,0,0,0,1.088,3.046A4.9,4.9,0,0,1,24,33.093Zm19-3a2.469,2.469,0,0,1-.357,1.273h2.168A4.384,4.384,0,0,0,45,30.093a6.6,6.6,0,0,0-1.188-3.421A4.347,4.347,0,0,1,43,24.639a2.983,2.983,0,0,1,1.479-2.4l-.958-1.756A5.013,5.013,0,0,0,41,24.639a6.017,6.017,0,0,0,1.088,3.046A4.9,4.9,0,0,1,43,30.093Z" transform="translate(-16 -20.488)"/>
</svg>
