<svg xmlns="http://www.w3.org/2000/svg" width="31.633" height="32.995" viewBox="0 0 31.633 32.995">
  <path id="notification_icon" d="M50.936,44.871l-5.918-7.729V25.9a9.9,9.9,0,0,0-19.8,0V37.142L19.3,44.871H30.24a4.948,4.948,0,0,0,9.758,0ZM26.871,37.752V25.9a8.249,8.249,0,0,1,16.5,0V37.752l3.981,5.469H22.89Zm8.249,9.593a3.3,3.3,0,0,1-3.191-2.475H38.31A3.3,3.3,0,0,1,35.119,47.345ZM20.339,37.722a15.742,15.742,0,0,1,0-10.448l1.556.55a14.092,14.092,0,0,0,0,9.349Zm28.006-.55a14.092,14.092,0,0,0,0-9.349l1.556-.55a15.742,15.742,0,0,1,0,10.448Z" transform="translate(-19.303 -16)"/>
</svg>
