<svg xmlns="http://www.w3.org/2000/svg" width="24.879" height="12.439" viewBox="0 0 24.879 12.439">
  <path id="Onboarding_icon" d="M39.013,56.622a1.868,1.868,0,0,0-1.757,1.244H32.793A1.868,1.868,0,0,0,30.927,56H25.919a4.15,4.15,0,0,0-.968.216l-5.388,1.5A1.865,1.865,0,0,0,16,58.488v5.6a1.865,1.865,0,0,0,3.623.622h1.153l4.746,3.407a1.857,1.857,0,0,0,1.052.325,1.892,1.892,0,0,0,.527-.076l4.373-1.2.192-.053a1.806,1.806,0,0,0,.941-.678l3.443-1.722h1.206a1.865,1.865,0,0,0,3.623-.622v-5.6A1.868,1.868,0,0,0,39.013,56.622ZM17.866,64.708a.623.623,0,0,1-.622-.622v-5.6a.622.622,0,1,1,1.244,0v5.6A.623.623,0,0,1,17.866,64.708ZM31.3,65.917l-4.5,1.236-.058.018a.634.634,0,0,1-.51-.076l-5.059-3.632H19.732v-4.5L25.3,57.41l.04-.013a3.138,3.138,0,0,1,.628-.154h4.956a.623.623,0,0,1,.622.622h-.622a3.741,3.741,0,0,0-.758.1l-1.505.309a2.819,2.819,0,0,0-.513.157,3.437,3.437,0,0,0-.467.307l-3.5,2.629a1.866,1.866,0,0,0,1.971,3.145l3.392-2.1,2.115,2.643.029.036-.028-.035a.666.666,0,0,1,.048.269.584.584,0,0,1-.4.588Zm4.453-2.454L32.9,64.891a1.552,1.552,0,0,0-.225-.548l-1.7-2.124h1.194V60.976H29.506l-3.927,2.436a.623.623,0,0,1-.871-.57.614.614,0,0,1,.229-.482l3.493-2.62c.084-.063.206-.149.257-.179q.118-.037.238-.064l1.506-.309.024-.005a2.566,2.566,0,0,1,.473-.071h6.22v4.354Zm3.879.622a.622.622,0,0,1-1.244,0v-5.6a.622.622,0,1,1,1.244,0Z" transform="translate(-16 -56)"/>
</svg>
