<svg width="60" height="60" viewBox="0 0 60 60" fill="none" xmlns="http://www.w3.org/2000/svg">
<path d="M35.625 48.75C35.625 50.2418 35.0324 51.6726 33.9775 52.7275C32.9226 53.7824 31.4918 54.375 30 54.375C28.5082 54.375 27.0774 53.7824 26.0225 52.7275C24.9676 51.6726 24.375 50.2418 24.375 48.75C24.375 47.2582 24.9676 45.8274 26.0225 44.7725C27.0774 43.7176 28.5082 43.125 30 43.125C31.4918 43.125 32.9226 43.7176 33.9775 44.7725C35.0324 45.8274 35.625 47.2582 35.625 48.75ZM35.625 30C35.625 31.4918 35.0324 32.9226 33.9775 33.9775C32.9226 35.0324 31.4918 35.625 30 35.625C28.5082 35.625 27.0774 35.0324 26.0225 33.9775C24.9676 32.9226 24.375 31.4918 24.375 30C24.375 28.5082 24.9676 27.0774 26.0225 26.0225C27.0774 24.9676 28.5082 24.375 30 24.375C31.4918 24.375 32.9226 24.9676 33.9775 26.0225C35.0324 27.0774 35.625 28.5082 35.625 30ZM35.625 11.25C35.625 12.7418 35.0324 14.1726 33.9775 15.2275C32.9226 16.2824 31.4918 16.875 30 16.875C28.5082 16.875 27.0774 16.2824 26.0225 15.2275C24.9676 14.1726 24.375 12.7418 24.375 11.25C24.375 9.75816 24.9676 8.32742 26.0225 7.27252C27.0774 6.21763 28.5082 5.625 30 5.625C31.4918 5.625 32.9226 6.21763 33.9775 7.27252C35.0324 8.32742 35.625 9.75816 35.625 11.25Z" fill="#0F0F0F"/>
</svg>
