<svg xmlns="http://www.w3.org/2000/svg" width="17.155" height="21.444" viewBox="0 0 17.155 21.444">
  <path id="Password_icon" d="M46.474,23.505V21.9a5.9,5.9,0,1,0-11.794,0v1.608H32V37.444H49.155V23.505ZM35.753,21.9a4.825,4.825,0,0,1,9.65,0v1.608h-9.65Zm12.33,14.474H33.072V24.577H48.083Zm-9.114-2.68h3.217V30.818a2.144,2.144,0,1,0-3.741-1.645,2.123,2.123,0,0,0,.524,1.646Zm.542-4.406a1.085,1.085,0,0,1,.943-.948,1.071,1.071,0,0,1,.838,1.863l-.178.16v2.259H40.041v-2.26l-.178-.16a1.066,1.066,0,0,1-.352-.915Z" transform="translate(-32 -16)"/>
</svg>
