<svg xmlns="http://www.w3.org/2000/svg" width="10.288" height="19.503" viewBox="0 0 10.288 19.503"><defs><style>.a{fill:#525f6b;}</style></defs><path class="a" d="M57.883,28.275c0-2.036.427-2.755,2.6-4.413,1.548-1.182,2.036-2.011,2.036-3.425A3.033,3.033,0,0,0,59.2,17.3c-2.109,0-3.45,1.146-3.986,3.45L53.8,20.51a5.177,5.177,0,0,1,1.792-3.267A5.515,5.515,0,0,1,59.224,16c2.889,0,4.864,1.792,4.864,4.413a4.5,4.5,0,0,1-1.121,3.072,9.124,9.124,0,0,1-1.743,1.475c-1.682,1.231-2.036,1.816-2.036,3.45v1.572h-1.3Zm1.877,6a1.231,1.231,0,1,1-2.462,0,1.213,1.213,0,0,1,1.231-1.231A1.244,1.244,0,0,1,59.761,34.272Z" transform="translate(-53.8 -16)"/></svg>