<svg id="Real_Time_Monitoring_icon_white" xmlns="http://www.w3.org/2000/svg" width="29.345" height="25.64" viewBox="0 0 29.345 25.64">
  <path id="Path_7029" data-name="Path 7029" d="M93.759,73.79,87.2,67.229a5.653,5.653,0,0,0,.532-2.438,5.871,5.871,0,1,0-3.391,5.315l6.543,6.543a2,2,0,0,0,1.43.586,2.042,2.042,0,0,0,1.43-.586A2.008,2.008,0,0,0,93.759,73.79Zm-16.293-9a4.4,4.4,0,1,1,4.4,4.4A4.412,4.412,0,0,1,77.466,64.791ZM92.715,75.623a.575.575,0,0,1-.806,0L85.585,69.3a5.466,5.466,0,0,0,.788-.806L92.7,74.816a.569.569,0,0,1,.165.4A.486.486,0,0,1,92.715,75.623ZM86.08,58.8l.128.092a7.235,7.235,0,0,1,2.364,2.969H91.4V60.392H88.261l-1.3-3.9a.735.735,0,0,0-.66-.495.745.745,0,0,0-.715.422L84.8,58.083A7.226,7.226,0,0,1,86.08,58.8Z" transform="translate(-65.003 -51.595)" fill="#fff"/>
  <path id="Path_7030" data-name="Path 7030" d="M45.507,59.3a.714.714,0,0,0,.66.385.7.7,0,0,0,.641-.422l1.375-2.9a2.877,2.877,0,0,0-1.21-.861l-.861,1.814-.99-1.906a3.237,3.237,0,0,0-1.265.733ZM39.881,54.1l1.081-3.482.825,1.576a7.934,7.934,0,0,1,1.283-.715l-1.631-3.116a.716.716,0,0,0-.715-.385.724.724,0,0,0-.641.513l-2.877,9.237-.825-3.336a.712.712,0,0,0-.715-.55H32v1.466h3.1l1.32,5.315a.726.726,0,0,0,.7.55h.018a.726.726,0,0,0,.7-.513L38.6,58.2A7.221,7.221,0,0,1,39.881,54.1Z" transform="translate(-29.068 -45.045)" fill="#fff"/>
  <path id="Path_7031" data-name="Path 7031" d="M33.594,52.49c-.238.018-.495.037-.733.037s-.495-.018-.733-.037v1.5H29.2V51.537A7.44,7.44,0,0,1,27,49.594h-9.53V33.466H43.858V49.594H42.227l1.466,1.466h1.631V32H16V51.061H27.73v2.932H24.8v1.466h11.73V53.993H33.594Z" transform="translate(-16 -32)" fill="#fff"/>
</svg>
