<svg xmlns="http://www.w3.org/2000/svg" width="15.739" height="19.673" viewBox="0 0 15.739 19.673">
  <path id="Remove_photo" data-name="Remove photo" d="M46.755,20.918H32.984V18.951H46.755ZM45.279,33.706a.985.985,0,0,1-.984.984H35.443a.985.985,0,0,1-.984-.984V21.9h1.967v6.886h.984V21.9h1.967v6.886h.984V21.9h1.967v6.886h.984V21.9h1.967ZM37.9,16.984h3.935a.985.985,0,0,1,.984.984h-5.9a.985.985,0,0,1,.984-.984m9.837.984H43.8A1.97,1.97,0,0,0,41.837,16H37.9a1.97,1.97,0,0,0-1.967,1.967H32V21.9h1.475v11.8a1.97,1.97,0,0,0,1.967,1.967H44.3a1.97,1.97,0,0,0,1.967-1.967V21.9h1.475Z" transform="translate(-32 -16)" fill="#007bc0"/>
</svg>
