<svg xmlns="http://www.w3.org/2000/svg" width="48" height="48" viewBox="0 0 48 48">
  <path id="renewable_energy_icon" d="M50.8,35.2a6,6,0,1,1,6-6A6.007,6.007,0,0,1,50.8,35.2Zm0-9.6a3.6,3.6,0,1,0,3.6,3.6A3.6,3.6,0,0,0,50.8,25.6ZM52,16H49.6v4.8H52ZM64,28H59.2v2.4H64ZM38.965,28l.1,2.316,0,.084H42.4V28Zm22.017-7.285-1.7-1.7-3.394,3.394,1.7,1.7,3.394-3.394Zm-.933,16.036-2.461-2.46-1.7,1.7,2.46,2.461,1.7-1.7ZM45.709,22.412l-3.394-3.394-1.7,1.7,3.394,3.394,1.7-1.7ZM38,32.8H36.2a3.631,3.631,0,0,0-.5-.942l.972-1.437-.633-14.1-5.55,1.056L28.894,29.611l1.173,2.043A3.559,3.559,0,0,0,29.4,32.8H27.6L16.609,41.062l3.99,3.99,10.734-5.367.261-.531L31.6,61.6H22V60.241A4.8,4.8,0,0,0,25.6,55.6V52H24.4V49.6H22V52H19.6V49.6H17.2V52H16v3.6a4.8,4.8,0,0,0,3.6,4.641V64H34l-.006-25,.351.69,10.728,5.364,3.993-3.993ZM18.4,55.6V54.4h4.8v1.2a2.4,2.4,0,0,1-4.8,0ZM32.8,35.2a1.2,1.2,0,0,1-1.074-.669A1.177,1.177,0,0,1,31.6,34a1.192,1.192,0,0,1,.6-1.041,1.114,1.114,0,0,1,.459-.156h.285a1.151,1.151,0,0,1,.531.2A1.191,1.191,0,0,1,34,34a1.177,1.177,0,0,1-.126.534,1.149,1.149,0,0,1-.075.132.065.065,0,0,0-.015.024A1.2,1.2,0,0,1,32.8,35.2Zm.963-16.005.474,10.539-.525.774a3.605,3.605,0,0,0-1.566-.057l-.768-1.335,1.266-9.708,1.119-.213ZM29.539,37.9,21.073,42.13l-.81-.81L28.4,35.2h1a3.583,3.583,0,0,0,.816,1.311L29.539,37.9ZM44.6,42.13l-8.472-4.236-.72-1.416A3.545,3.545,0,0,0,36.19,35.2H37.2l8.205,6.123-.807.807ZM58,44.8A1.2,1.2,0,1,0,59.2,46,1.2,1.2,0,0,0,58,44.8ZM53.2,52a1.2,1.2,0,1,0,1.2,1.2A1.2,1.2,0,0,0,53.2,52Zm9.6,2.4A1.2,1.2,0,1,0,64,55.6,1.2,1.2,0,0,0,62.8,54.4Zm-.3,7.2a6.361,6.361,0,0,1-3.063-1.967,1.2,1.2,0,0,0-1.847,0A5.22,5.22,0,0,1,53.863,61.6a5.219,5.219,0,0,1-3.728-1.967,1.2,1.2,0,0,0-1.847,0A5.219,5.219,0,0,1,44.561,61.6a5.005,5.005,0,0,1-3.453-1.66A1.2,1.2,0,0,0,40,59.2h-.09a1.2,1.2,0,0,0-1.1.732A5.924,5.924,0,0,1,36.4,61.4v2.472a8.071,8.071,0,0,0,3.54-1.727,6.68,6.68,0,0,0,9.272-.027,6.684,6.684,0,0,0,9.317-.014A7.287,7.287,0,0,0,62.5,64H64V61.6Z" transform="translate(-16 -16)"/>
</svg>
