<svg id="Save___Continue_icon" data-name="Save_&amp;_Continue_icon" xmlns="http://www.w3.org/2000/svg" width="24" height="24" viewBox="0 0 24 24">
  <path id="Path_7079" data-name="Path 7079" d="M131.133,133.967l-.95-.95.867-.867H128v-1.333h3.05l-.867-.867.95-.95,2.467,2.467-2.467,2.5Z" transform="translate(-112 -112.833)" fill="#fff"/>
  <path id="Path_7080" data-name="Path 7080" d="M117.333,112a5.333,5.333,0,1,0,5.333,5.333A5.349,5.349,0,0,0,117.333,112Zm0,9.333a4,4,0,1,1,4-4A4.012,4.012,0,0,1,117.333,121.333Z" transform="translate(-98.667 -98.667)" fill="#fff"/>
  <path id="Path_7081" data-name="Path 7081" d="M43.925,52H33.333V33.333h3.333v6h12v-6h1.05L52,35.617v8.308a6.794,6.794,0,0,1,1.333.41V35.05L50.283,32H32V53.333H44.335A6.794,6.794,0,0,1,43.925,52ZM38,33.333h9.333V38H38Z" transform="translate(-32 -32)" fill="#fff"/>
</svg>
