<svg xmlns="http://www.w3.org/2000/svg" width="20" height="20" viewBox="0 0 20 20">
  <path id="search_icon" d="M35.35,32.643l-7.108-7.108a6.5,6.5,0,1,0-2.707,2.707l7.108,7.108a2.177,2.177,0,0,0,1.531.65,1.822,1.822,0,0,0,1.3-.525A2.011,2.011,0,0,0,35.35,32.643ZM17,22.5A5.5,5.5,0,1,1,22.5,28,5.505,5.505,0,0,1,17,22.5ZM34.768,34.768A.824.824,0,0,1,34.1,35a1.221,1.221,0,0,1-.749-.357l-6.95-6.95A6.554,6.554,0,0,0,27.693,26.4l6.95,6.95A1.221,1.221,0,0,1,35,34.1a.825.825,0,0,1-.232.668Z" transform="translate(-16 -16)"/>
</svg>
