<svg xmlns="http://www.w3.org/2000/svg" width="20.098" height="20.12" viewBox="0 0 20.098 20.12"><defs><style>.a{fill:#525f6b;}</style></defs><g transform="translate(-16.2 -16.025)"><path class="a" d="M67.587,71.675a4.087,4.087,0,1,1,4.087-4.087A4.1,4.1,0,0,1,67.587,71.675Zm0-7.169a3.081,3.081,0,1,0,3.081,3.081A3.086,3.086,0,0,0,67.587,64.506Z" transform="translate(-41.351 -41.504)"/><path class="a" d="M26.236,36.145a9.615,9.615,0,0,1-1.585-.126l-.327-.05-.579-2.226a7.584,7.584,0,0,1-1.144-.478l-1.987,1.17-.264-.189A10.061,10.061,0,0,1,18.1,31.994l-.189-.264,1.17-1.987a7.726,7.726,0,0,1-.478-1.157l-2.226-.579-.05-.327a10.046,10.046,0,0,1,0-3.169l.05-.327,2.226-.579a7.584,7.584,0,0,1,.478-1.144l-1.17-1.987.189-.264a10.061,10.061,0,0,1,2.251-2.251l.264-.189L22.589,18.9a7.726,7.726,0,0,1,1.157-.478l.579-2.226.327-.05a10.382,10.382,0,0,1,3.182,0l.327.05.579,2.226a7.584,7.584,0,0,1,1.144.478l1.987-1.17.264.189a10.062,10.062,0,0,1,2.251,2.251l.189.264-1.157,2a7.727,7.727,0,0,1,.478,1.157l2.226.579.05.327a10.046,10.046,0,0,1,0,3.169l-.05.327-2.226.579a7.585,7.585,0,0,1-.478,1.144l1.17,1.987-.189.264a10.061,10.061,0,0,1-2.251,2.251l-.264.189L29.9,33.24a7.726,7.726,0,0,1-1.157.478l-.579,2.226-.327.05a7.715,7.715,0,0,1-1.6.151ZM25.13,35.076a9.309,9.309,0,0,0,2.214,0l.553-2.138.277-.075a6.874,6.874,0,0,0,1.471-.616l.252-.138,1.912,1.119a9.3,9.3,0,0,0,1.572-1.572l-1.119-1.912.138-.252a6.874,6.874,0,0,0,.616-1.471l.075-.277,2.138-.553a8.165,8.165,0,0,0,.063-1.107,10.881,10.881,0,0,0-.063-1.107l-2.138-.553-.075-.277a6.874,6.874,0,0,0-.616-1.471l-.138-.252,1.119-1.912a9.3,9.3,0,0,0-1.572-1.572L29.9,20.059l-.252-.138a6.874,6.874,0,0,0-1.471-.616l-.277-.075-.553-2.138a9.309,9.309,0,0,0-2.214,0l-.553,2.138L24.3,19.3a6.874,6.874,0,0,0-1.471.616l-.252.138L20.665,18.94a9.3,9.3,0,0,0-1.572,1.572l1.119,1.912-.138.252a6.874,6.874,0,0,0-.616,1.471l-.075.277-2.138.553a9.771,9.771,0,0,0,0,2.214l2.138.553.075.277a6.874,6.874,0,0,0,.616,1.471l.138.252-1.119,1.912a9.3,9.3,0,0,0,1.572,1.572l1.912-1.119.252.138a6.874,6.874,0,0,0,1.471.616l.277.075.553,2.138Z"/></g></svg>