<svg xmlns="http://www.w3.org/2000/svg" width="32.995" height="32.994" viewBox="0 0 32.995 32.994">
  <path id="settings_icon" d="M32.5,39.2a6.7,6.7,0,1,0-6.7-6.7A6.71,6.71,0,0,0,32.5,39.2Zm0-11.754A5.052,5.052,0,1,1,27.445,32.5,5.058,5.058,0,0,1,32.5,27.449ZM32.5,49a16.677,16.677,0,0,0,2.6-.206l.532-.085.957-3.657a13.16,13.16,0,0,0,1.885-.783l3.261,1.908.436-.316a16.554,16.554,0,0,0,3.683-3.683l.316-.436-1.909-3.26a13.146,13.146,0,0,0,.786-1.9l3.654-.947.085-.534a16.532,16.532,0,0,0,0-5.207l-.085-.533-3.657-.956a13.149,13.149,0,0,0-.783-1.887l1.908-3.26-.316-.436a16.554,16.554,0,0,0-3.683-3.683l-.436-.316-3.26,1.909a13.138,13.138,0,0,0-1.895-.786l-.947-3.654L35.1,16.21a16.606,16.606,0,0,0-5.207,0l-.532.085L28.4,19.952a13.131,13.131,0,0,0-1.885.783l-3.261-1.908-.436.316a16.554,16.554,0,0,0-3.683,3.683l-.316.436,1.909,3.26a13.151,13.151,0,0,0-.786,1.9l-3.654.947-.085.534a16.516,16.516,0,0,0,0,5.207l.085.532,3.657.956a13.151,13.151,0,0,0,.783,1.887l-1.908,3.26.316.436a16.554,16.554,0,0,0,3.683,3.683l.436.316,3.26-1.909a13.157,13.157,0,0,0,1.9.786l.947,3.654.534.085A16.682,16.682,0,0,0,32.5,49Zm1.816-1.762a14.868,14.868,0,0,1-3.63,0l-.907-3.5-.454-.13a11.483,11.483,0,0,1-2.422-1l-.411-.228L23.363,44.2A14.9,14.9,0,0,1,20.8,41.636l1.829-3.125L22.4,38.1a11.5,11.5,0,0,1-1-2.414l-.13-.452-3.5-.916a14.8,14.8,0,0,1,0-3.63l3.5-.907.13-.454a11.493,11.493,0,0,1,1-2.423l.228-.411L20.8,23.367A14.893,14.893,0,0,1,23.363,20.8l3.126,1.829L26.9,22.4a11.486,11.486,0,0,1,2.413-1l.452-.13.917-3.5a14.872,14.872,0,0,1,3.63,0l.907,3.5.454.13a11.487,11.487,0,0,1,2.423,1l.411.229,3.125-1.83A14.894,14.894,0,0,1,44.2,23.367L42.37,26.492l.229.411a11.488,11.488,0,0,1,1,2.414l.13.452,3.5.916a14.832,14.832,0,0,1,0,3.63l-3.5.907-.13.454a11.481,11.481,0,0,1-1,2.423l-.229.412,1.83,3.125A14.891,14.891,0,0,1,41.632,44.2l-3.126-1.829-.411.228a11.493,11.493,0,0,1-2.413,1l-.452.13Z" transform="translate(-16 -16.005)"/>
</svg>
