<svg xmlns="http://www.w3.org/2000/svg" width="29.036" height="25.98" viewBox="0 0 29.036 25.98">
  <path id="Stores_icon_black" d="M35.282,47.867h6.877V42.518H35.282Zm1.528-3.821h3.821v2.292H36.811ZM44.914,28H24.122L20,35.834v.189a4.206,4.206,0,0,0,3.056,4.042V53.98H45.98V40.065a4.206,4.206,0,0,0,3.056-4.042v-.189ZM25.047,29.528H43.989l2.816,5.349H22.231ZM40.6,36.405a2.675,2.675,0,0,1-5.3,0Zm-6.877,0a2.675,2.675,0,0,1-5.3,0Zm-12.172,0h5.3a2.675,2.675,0,0,1-5.3,0ZM32.226,52.452H28.405V44.046h3.821Zm12.226,0h-10.7V42.518H26.877v9.934H24.585V40.209a4.2,4.2,0,0,0,3.056-1.775,4.2,4.2,0,0,0,6.877,0,4.2,4.2,0,0,0,6.877,0,4.2,4.2,0,0,0,3.056,1.775ZM44.834,38.7a2.679,2.679,0,0,1-2.648-2.292h5.3A2.678,2.678,0,0,1,44.834,38.7Z" transform="translate(-20 -28)"/>
</svg>
