<svg xmlns="http://www.w3.org/2000/svg" width="35.675" height="31.92" viewBox="0 0 35.675 31.92">
  <path id="Store_icon" d="M38.777,52.41h8.449V45.838H38.777Zm1.878-4.694h4.694v2.816H40.654ZM50.611,28H25.065L20,37.625v.232a5.168,5.168,0,0,0,3.755,4.966v17.1H51.92v-17.1a5.168,5.168,0,0,0,3.755-4.966v-.232ZM26.2,29.878H49.475l3.46,6.572H22.741Zm19.115,8.449a3.287,3.287,0,0,1-6.506,0Zm-8.449,0a3.287,3.287,0,0,1-6.506,0Zm-14.956,0h6.506a3.287,3.287,0,0,1-6.506,0ZM35.021,58.043H30.327V47.715h4.694Zm15.021,0H36.9v-12.2H28.449v12.2H25.633V43a5.157,5.157,0,0,0,3.755-2.18,5.154,5.154,0,0,0,8.449,0,5.154,5.154,0,0,0,8.449,0A5.157,5.157,0,0,0,50.043,43Zm.469-16.9a3.292,3.292,0,0,1-3.253-2.816h6.506A3.29,3.29,0,0,1,50.512,41.144Z" transform="translate(-20 -28)" fill="#fff"/>
</svg>
