<svg xmlns="http://www.w3.org/2000/svg" width="38.33" height="36.02" viewBox="0 0 38.33 36.02"><defs><style>.a{fill:#338fce;}</style></defs><path class="a" d="M36.568,82.817H35.93V63.542a6.305,6.305,0,0,0,2.4-5.074.731.731,0,0,0-.074-.322L33.8,49.123a1.74,1.74,0,0,0-1.53-1.027H6.059a1.739,1.739,0,0,0-1.53,1.027L.074,58.145A.731.731,0,0,0,0,58.467a6.305,6.305,0,0,0,2.4,5.074V82.817H1.762a.657.657,0,0,0,0,1.3H36.568a.657.657,0,0,0,0-1.3ZM1.162,59.117h1.8a.657.657,0,0,0,0-1.3H1.529L5.5,49.768a.631.631,0,0,1,.555-.372H32.271a.631.631,0,0,1,.555.372l3.975,8.05H35.368a.657.657,0,0,0,0,1.3h1.8A4.347,4.347,0,0,1,33.118,63.2a4.346,4.346,0,0,1-4.05-4.082h3.9a.657.657,0,0,0,0-1.3H5.363a.657.657,0,0,0,0,1.3h3.9A4.346,4.346,0,0,1,5.212,63.2,4.347,4.347,0,0,1,1.162,59.117Zm26.7,0a4.346,4.346,0,0,1-4.05,4.082,4.346,4.346,0,0,1-4.05-4.082Zm-9.3,0a4.346,4.346,0,0,1-4.05,4.082,4.346,4.346,0,0,1-4.05-4.082Zm13.242,23.7H25.728V80.644h6.078Zm0-3.472H25.728V67.45h6.078Zm3,3.472H32.929V66.8a.61.61,0,0,0-.561-.65h-7.2a.61.61,0,0,0-.561.65V82.817H3.523V64.172a4.555,4.555,0,0,0,1.689.327,5.2,5.2,0,0,0,4.651-3.31,5.2,5.2,0,0,0,4.651,3.31,5.2,5.2,0,0,0,4.651-3.31,5.2,5.2,0,0,0,4.651,3.31,5.2,5.2,0,0,0,4.651-3.31,5.2,5.2,0,0,0,4.651,3.31,4.557,4.557,0,0,0,1.689-.327Z" transform="translate(0 -48.096)"/><g transform="translate(5.401 20.494)"><path class="a" d="M88.91,256.516h-16.2a.561.561,0,0,0-.561.561v11.4a.561.561,0,0,0,.561.561h16.2a.561.561,0,0,0,.561-.561v-11.4A.561.561,0,0,0,88.91,256.516Zm-.561,11.4H73.268V257.639h15.08Z" transform="translate(-72.145 -256.516)"/></g></svg>