<svg xmlns="http://www.w3.org/2000/svg" width="24.879" height="24.879" viewBox="0 0 24.879 24.879">
  <path id="Subscription_icon" d="M38.391,16V28.422l-1.244-.52V17.244h-19.9V33.415h9.522l.572,1.244H16V16ZM19.728,19.11H34.655v4.605a3.1,3.1,0,0,0-1.24-.252h0v-3.11H20.972v6.22h9.333v1.244H19.728Zm8.086,1.244h0ZM40.879,35.2V32.23a2.142,2.142,0,0,0-1.409-2.011L37.041,29.2l-.047-.018a2.137,2.137,0,0,0-.663-.1,2.323,2.323,0,0,0-1.049.254V26.574a1.866,1.866,0,1,0-3.732,0v5.3c-.469-.614-.948-1.234-1.118-1.434a1.858,1.858,0,0,0-2.187-.6,2.047,2.047,0,0,0-1.03,1.2l-.07.227,2.919,6.351A5.677,5.677,0,0,0,40.879,35.2ZM28.754,30.973a.669.669,0,0,1,.729.272c.273.32,1.537,1.983,2.167,2.818l.187.247h.956V26.574a.622.622,0,1,1,1.244,0v4.645h1.244a1.049,1.049,0,0,1,1.05-.894.889.889,0,0,1,.257.037L39,31.373l.033.013a.9.9,0,0,1,.6.844V35.2a4.432,4.432,0,0,1-8.442,1.888l-2.7-5.869A.641.641,0,0,1,28.754,30.973Z" transform="translate(-16 -16)"/>
</svg>
