<svg xmlns="http://www.w3.org/2000/svg" xmlns:xlink="http://www.w3.org/1999/xlink" width="1280" height="210" viewBox="0 0 1280 210">
  <defs>
    <linearGradient id="linear-gradient" x1="1.134" y1="0.754" x2="-0.034" y2="0.035" gradientUnits="objectBoundingBox">
      <stop offset="0" stop-color="#006249" stop-opacity="0.78"/>
      <stop offset="0.341" stop-color="#78be20" stop-opacity="0.769"/>
      <stop offset="1" stop-color="#00a8b0"/>
    </linearGradient>
    <clipPath id="clip-path">
      <rect id="Rectangle_173" data-name="Rectangle 173" width="1281" height="209" transform="translate(0 94)" fill="#1f0"/>
    </clipPath>
    <clipPath id="clip-path-2">
      <rect id="Rectangle_162" data-name="Rectangle 162" width="1281" height="208.667" fill="#00fff6"/>
    </clipPath>
    <clipPath id="clip-_05">
      <rect width="1280" height="210"/>
    </clipPath>
  </defs>
  <g id="_05" data-name="05" clip-path="url(#clip-_05)">
    <rect width="1280" height="210" fill="#fff"/>
    <g id="Group_776" data-name="Group 776" transform="translate(0 -86)">
      <path id="Path_339" data-name="Path 339" d="M0,0H1281V209.667H0Z" transform="translate(-1 87)" fill="url(#linear-gradient)"/>
      <g id="Mask_Group_6" data-name="Mask Group 6" transform="translate(1 -7)" clip-path="url(#clip-path)">
        <rect id="Rectangle_160" data-name="Rectangle 160" width="274" height="300" rx="50" transform="matrix(0.875, 0.485, -0.485, 0.875, 1124.899, 222.776)" fill="#fff" opacity="0.07"/>
        <rect id="Rectangle_161" data-name="Rectangle 161" width="68" height="395" rx="34" transform="matrix(0.839, 0.545, -0.545, 0.839, 1020.019, 240.059)" fill="#fff" opacity="0.08"/>
        <path id="Path_370" data-name="Path 370" d="M234,0C363.235,0,468,104.765,468,234S363.235,468,234,468,0,363.235,0,234,104.765,0,234,0Z" transform="translate(-135 -193.612)" fill="#fff" opacity="0.06"/>
      </g>
      <line id="Line_76" data-name="Line 76" x2="1280" transform="translate(0.5 86.5)" fill="none" stroke="rgba(191,192,194,0.5)" stroke-width="1"/>
      <circle id="Ellipse_19" data-name="Ellipse 19" cx="46" cy="46" r="46" transform="translate(329 123.389)" fill="#fff" opacity="0.07"/>
      <path id="Subtraction_24" data-name="Subtraction 24" d="M-31-6899.4h-2.362a21.16,21.16,0,0,0,.193-2.851c0-11.994-10.076-21.751-22.462-21.751a22.836,22.836,0,0,0-14.806,5.384c-.416-.823-.869-1.659-1.347-2.483a25.315,25.315,0,0,1,7.265-4.069,16.143,16.143,0,0,1-5.183-5.519,15.376,15.376,0,0,1-1.986-7.559,15.387,15.387,0,0,1,4.553-10.945,15.392,15.392,0,0,1,10.947-4.555,15.4,15.4,0,0,1,10.947,4.555,15.417,15.417,0,0,1,4.553,10.945,15.541,15.541,0,0,1-1.987,7.594,15.544,15.544,0,0,1-5.181,5.484,24.888,24.888,0,0,1,6.761,3.6,25.363,25.363,0,0,1,5.337,5.448A25.162,25.162,0,0,1-31-6901.34v1.936Zm-25-51.6a12.772,12.772,0,0,0-13,12.5A12.772,12.772,0,0,0-56-6926a12.772,12.772,0,0,0,13-12.5A12.772,12.772,0,0,0-56-6951.006Zm-84,51.509h0l-3.376,0a34.7,34.7,0,0,1,1.844-11.215,34.589,34.589,0,0,1,5.13-9.7,34.866,34.866,0,0,1,7.82-7.573,34.784,34.784,0,0,1,9.909-4.838,23.318,23.318,0,0,1-9.447-8.43,23.183,23.183,0,0,1-3.632-12.5,22.941,22.941,0,0,1,1.833-9.024,23.265,23.265,0,0,1,5-7.395,23.291,23.291,0,0,1,7.393-5A23.011,23.011,0,0,1-108.5-6977a23.007,23.007,0,0,1,9.026,1.835,23.361,23.361,0,0,1,7.393,5,23.4,23.4,0,0,1,5,7.395,22.991,22.991,0,0,1,1.835,9.024,23.207,23.207,0,0,1-3.633,12.5,23.322,23.322,0,0,1-9.445,8.43,34.872,34.872,0,0,1,9.909,4.838,34.993,34.993,0,0,1,7.82,7.573,34.742,34.742,0,0,1,5.132,9.7,34.9,34.9,0,0,1,1.844,11.215H-77a31.311,31.311,0,0,0-9.236-22.27,31.288,31.288,0,0,0-22.264-9.238,31.536,31.536,0,0,0-31.5,31.5v.005l0,0Zm31.5-74.51a20.523,20.523,0,0,0-20.5,20.5,20.525,20.525,0,0,0,20.5,20.5,20.525,20.525,0,0,0,20.5-20.5A20.523,20.523,0,0,0-108.5-6974.007Zm-74.291,74.507H-186v-1.938a24.96,24.96,0,0,1,4.759-14.7,25.286,25.286,0,0,1,5.335-5.435,24.871,24.871,0,0,1,6.761-3.6,16.151,16.151,0,0,1-5.183-5.519,15.376,15.376,0,0,1-1.986-7.559,15.387,15.387,0,0,1,4.553-10.945,15.392,15.392,0,0,1,10.947-4.555,15.4,15.4,0,0,1,10.947,4.555,15.4,15.4,0,0,1,4.554,10.945,15.336,15.336,0,0,1-7.17,12.982,27.3,27.3,0,0,1,7.267,4.069c-.577.988-1.12,2-1.613,3.008a21.547,21.547,0,0,0-14.673-5.815,21.524,21.524,0,0,0-21.5,21.5,21.807,21.807,0,0,0,.208,3.006ZM-161-6951a12.771,12.771,0,0,0-13,12.5,12.773,12.773,0,0,0,13,12.5,12.773,12.773,0,0,0,13-12.5A12.77,12.77,0,0,0-161-6951Z" transform="translate(1230.002 7129.006)" fill="#fff" opacity="0.73"/>
    </g>
  </g>
</svg>
