<svg xmlns="http://www.w3.org/2000/svg" width="32.995" height="32.995" viewBox="0 0 32.995 32.995">
  <path id="user2_icon" d="M32.5,16A16.5,16.5,0,1,0,49,32.5,16.516,16.516,0,0,0,32.5,16ZM25.081,45.352a7,7,0,0,1,7.417-7.08,7,7,0,0,1,7.417,7.08,14.795,14.795,0,0,1-14.833,0Zm3.292-13.679A4.124,4.124,0,1,1,32.5,35.8,4.129,4.129,0,0,1,28.373,31.673ZM41.482,44.308a8.453,8.453,0,0,0-6.543-7.4,5.774,5.774,0,1,0-4.883,0,8.453,8.453,0,0,0-6.543,7.4,14.848,14.848,0,1,1,17.97,0Z" transform="translate(-16 -16)"/>
</svg>
