<svg xmlns="http://www.w3.org/2000/svg" width="26.268" height="16.47" viewBox="0 0 26.268 16.47">
  <path id="view_icon" d="M32.578,64.47c-8.544,0-12.779-7.584-12.955-7.906l-.179-.329.179-.329C19.8,55.584,24.034,48,32.578,48s12.779,7.584,12.955,7.906l.179.329-.179.329C45.357,56.886,41.122,64.47,32.578,64.47ZM21.027,56.234c.894,1.408,4.8,6.863,11.551,6.863,6.771,0,10.659-5.451,11.551-6.862-.895-1.409-4.8-6.863-11.551-6.863C25.807,49.372,21.919,54.824,21.027,56.234Zm11.551,4.8a4.8,4.8,0,1,1,4.8-4.8A4.809,4.809,0,0,1,32.578,61.039Zm0-8.235a3.431,3.431,0,1,0,3.431,3.431A3.435,3.435,0,0,0,32.578,52.8Z" transform="translate(-19.444 -48)"/>
</svg>
