<svg xmlns="http://www.w3.org/2000/svg" width="28.622" height="17.946" viewBox="0 0 28.622 17.946">
  <path id="view_icon2" d="M33.755,65.946c-9.31,0-13.924-8.263-14.116-8.615l-.2-.358.2-.358C19.831,56.263,24.445,48,33.755,48s13.924,8.263,14.116,8.615l.2.358-.2.358C47.679,57.683,43.065,65.946,33.755,65.946ZM21.169,56.972c.974,1.534,5.227,7.478,12.587,7.478,7.378,0,11.614-5.94,12.587-7.477-.975-1.535-5.228-7.478-12.587-7.478C26.377,49.5,22.141,55.435,21.169,56.972Zm12.587,5.235a5.234,5.234,0,1,1,5.234-5.234A5.24,5.24,0,0,1,33.755,62.207Zm0-8.973a3.739,3.739,0,1,0,3.739,3.739A3.743,3.743,0,0,0,33.755,53.234Z" transform="translate(-19.444 -48)" fill="#007bc0"/>
</svg>
