<svg id="washing-machine" xmlns="http://www.w3.org/2000/svg" width="31.195" height="39" viewBox="0 0 31.195 39">
  <path id="Path_441" data-name="Path 441" d="M70.537,32h2.927v1.951H70.537Zm-3.9,0h2.927v1.951H66.634Zm-3.9,0h2.927v1.951H62.732ZM52,32h7.8v1.951H52Z" transform="translate(-47.122 -28.098)" fill="#fff"/>
  <path id="Path_442" data-name="Path 442" d="M59.341,16H35.878A3.872,3.872,0,0,0,32,19.878V51.122A3.872,3.872,0,0,0,35.878,55H59.317A3.872,3.872,0,0,0,63.2,51.122V19.878A3.836,3.836,0,0,0,59.341,16Zm1.927,35.146a1.931,1.931,0,0,1-1.927,1.927H35.878a1.931,1.931,0,0,1-1.927-1.927V25.756H61.268Zm0-27.341H33.951V19.878a1.931,1.931,0,0,1,1.927-1.927H59.317a1.931,1.931,0,0,1,1.927,1.927V23.8Z" transform="translate(-32 -16)" fill="#fff"/>
  <path id="Path_443" data-name="Path 443" d="M65.378,71.5a9.878,9.878,0,1,0,9.878,9.878A9.9,9.9,0,0,0,65.378,71.5Zm0,2.2a7.691,7.691,0,0,1,7.512,6.073,3.945,3.945,0,0,1-1.049-.854,1.045,1.045,0,0,0-.78-.415.94.94,0,0,0-.78.415C69.6,79.866,68.89,80.4,68.3,80.4s-1.293-.537-1.976-1.488a1.045,1.045,0,0,0-.78-.415.94.94,0,0,0-.78.415c-.683.951-1.39,1.488-1.976,1.488s-1.293-.537-1.976-1.488a1.045,1.045,0,0,0-.78-.415.94.94,0,0,0-.78.415,4.072,4.072,0,0,1-1.317.951A7.529,7.529,0,0,1,65.378,73.7Zm0,15.366a7.71,7.71,0,0,1-7.659-7,10.105,10.105,0,0,0,2.122-1.171,4.04,4.04,0,0,0,2.878,1.463,3.933,3.933,0,0,0,2.78-1.366,3.933,3.933,0,0,0,2.78,1.366,4,4,0,0,0,2.854-1.439,8.971,8.971,0,0,0,1.9,1.146A7.712,7.712,0,0,1,65.378,89.061Z" transform="translate(-49.768 -57.963)" fill="#fff"/>
</svg>
